<svg xmlns="http://www.w3.org/2000/svg" width="79.999" height="80" viewBox="0 0 79.999 80">
  <g id="high-quality" transform="translate(-0.004)">
    <path id="Path_133" data-name="Path 133" d="M191.449,137.341l-6.743-1.88-3.871-5.832a2.353,2.353,0,0,0-3.905,0l-3.871,5.832-6.743,1.88a2.344,2.344,0,0,0-1.207,3.714l4.35,5.484-.3,6.994a2.344,2.344,0,0,0,3.159,2.3l6.56-2.442,6.56,2.442a2.344,2.344,0,0,0,3.159-2.3l-.3-6.994,4.35-5.484a2.344,2.344,0,0,0-1.207-3.714Zm-7.358,6.969a2.344,2.344,0,0,0-.505,1.556l.183,4.338-4.069-1.515a2.344,2.344,0,0,0-1.636,0l-4.069,1.515.183-4.338a2.344,2.344,0,0,0-.505-1.556l-2.7-3.4,4.183-1.166a2.344,2.344,0,0,0,1.323-.961l2.4-3.618,2.4,3.618a2.345,2.345,0,0,0,1.323.961l4.183,1.166Z" transform="translate(-138.878 -108.497)" fill="#000" opacity="0.4"/>
    <path id="Path_134" data-name="Path 134" d="M79.316,61.8l-9.141-9.142C83.9,29.884,66.753-.261,40,0,13.257-.262-3.9,29.889,9.832,52.657L.691,61.8a2.344,2.344,0,0,0,.916,3.881l9.539,3.179L14.325,78.4a2.344,2.344,0,0,0,3.881.916L29.253,68.266a35.2,35.2,0,0,0,21.5,0L61.8,79.314a2.344,2.344,0,0,0,3.881-.916l3.179-9.539L78.4,65.68a2.344,2.344,0,0,0,.916-3.881ZM17.573,73.318l-2.352-7.053a2.344,2.344,0,0,0-1.482-1.482L6.687,62.431l5.83-5.83a35.473,35.473,0,0,0,12.021,9.752ZM40,65.271A30.325,30.325,0,0,1,9.712,34.98c1.664-40.185,58.924-40.174,60.582,0A30.326,30.326,0,0,1,40,65.271Zm26.264-.489a2.343,2.343,0,0,0-1.482,1.482l-2.352,7.053L55.47,66.353A35.471,35.471,0,0,0,67.491,56.6l5.83,5.83Z" transform="translate(0 0)" fill="#000"/>
    <path id="Path_135" data-name="Path 135" d="M121.342,64.276A24.965,24.965,0,0,0,96.4,89.213c1.37,33.082,48.509,33.073,49.874,0A24.965,24.965,0,0,0,121.342,64.276Zm0,45.187a20.272,20.272,0,0,1-20.25-20.25c1.112-26.864,39.391-26.856,40.5,0A20.272,20.272,0,0,1,121.342,109.463Z" transform="translate(-81.338 -54.233)" fill="#000"/>
  </g>
</svg>
