<svg xmlns="http://www.w3.org/2000/svg" xmlns:xlink="http://www.w3.org/1999/xlink" width="80" height="80" viewBox="0 0 80 80">
  <defs>
    <clipPath id="clip-path">
      <path id="path3372" d="M0-682.665H80v80H0Z" transform="translate(0 682.665)" fill="#000"/>
    </clipPath>
  </defs>
  <g id="g3366" transform="translate(0 682.665)">
    <g id="g3368" transform="translate(0 -682.665)">
      <g id="g3370" clip-path="url(#clip-path)">
        <g id="g3376" transform="translate(0.156 62.812)">
          <path id="path3378" d="M-111.823-20A14.861,14.861,0,0,1-96.979-5.156a2.344,2.344,0,0,1-2.344,2.344h-25a2.344,2.344,0,0,1-2.344-2.344A14.861,14.861,0,0,1-111.823-20Zm9.883,12.5a10.174,10.174,0,0,0-9.883-7.813A10.174,10.174,0,0,0-121.706-7.5Z" transform="translate(126.666 20)" fill="#000"/>
        </g>
        <g id="g3380" transform="translate(6.406 47.187)">
          <path id="path3382" d="M-64.739-20a8.6,8.6,0,0,1,8.594,8.594v3.125A8.6,8.6,0,0,1-64.739.313a8.6,8.6,0,0,1-8.594-8.594v-3.125A8.6,8.6,0,0,1-64.739-20Zm0,15.625a3.911,3.911,0,0,0,3.906-3.906v-3.125a3.911,3.911,0,0,0-3.906-3.906,3.911,3.911,0,0,0-3.906,3.906v3.125A3.911,3.911,0,0,0-64.739-4.375Z" transform="translate(73.333 20)" fill="#000"/>
        </g>
        <g id="g3384" transform="translate(25.156 62.812)">
          <path id="path3386" d="M-111.823-20A14.861,14.861,0,0,1-96.979-5.156a2.344,2.344,0,0,1-2.344,2.344h-25a2.344,2.344,0,0,1-2.344-2.344A14.861,14.861,0,0,1-111.823-20Zm9.883,12.5a10.174,10.174,0,0,0-9.883-7.813A10.174,10.174,0,0,0-121.706-7.5Z" transform="translate(126.666 20)" fill="#000"/>
        </g>
        <g id="g3388" transform="translate(31.406 47.187)">
          <path id="path3390" d="M-64.739-20a8.6,8.6,0,0,1,8.594,8.594v3.125A8.6,8.6,0,0,1-64.739.313a8.6,8.6,0,0,1-8.594-8.594v-3.125A8.6,8.6,0,0,1-64.739-20Zm0,15.625a3.911,3.911,0,0,0,3.906-3.906v-3.125a3.911,3.911,0,0,0-3.906-3.906,3.911,3.911,0,0,0-3.906,3.906v3.125A3.911,3.911,0,0,0-64.739-4.375Z" transform="translate(73.333 20)" fill="#000"/>
        </g>
        <g id="g3392" transform="translate(50.156 62.812)">
          <path id="path3394" d="M-111.823-20A14.861,14.861,0,0,1-96.979-5.156a2.344,2.344,0,0,1-2.344,2.344h-25a2.344,2.344,0,0,1-2.344-2.344A14.861,14.861,0,0,1-111.823-20Zm9.883,12.5a10.174,10.174,0,0,0-9.883-7.813A10.174,10.174,0,0,0-121.706-7.5Z" transform="translate(126.666 20)" fill="#000"/>
        </g>
        <g id="g3396" transform="translate(56.406 47.187)">
          <path id="path3398" d="M-64.739-20a8.6,8.6,0,0,1,8.594,8.594v3.125A8.6,8.6,0,0,1-64.739.313a8.6,8.6,0,0,1-8.594-8.594v-3.125A8.6,8.6,0,0,1-64.739-20Zm0,15.625a3.911,3.911,0,0,0,3.906-3.906v-3.125a3.911,3.911,0,0,0-3.906-3.906,3.911,3.911,0,0,0-3.906,3.906v3.125A3.911,3.911,0,0,0-64.739-4.375Z" transform="translate(73.333 20)" fill="#000"/>
        </g>
        <g id="g3400" transform="translate(19.074 0)">
          <path id="path3402" d="M-295.662-180h9.375a2.344,2.344,0,0,1,2.344,2.344v2.213a17.726,17.726,0,0,1,3.761,2.188l1.93-1.114a2.344,2.344,0,0,1,3.2.858l4.688,8.119a2.344,2.344,0,0,1-.858,3.2l-1.922,1.11a17.585,17.585,0,0,1,.137,2.176,17.586,17.586,0,0,1-.137,2.176l1.922,1.11a2.344,2.344,0,0,1,.858,3.2l-4.687,8.119a2.344,2.344,0,0,1-3.2.858l-1.93-1.114a17.727,17.727,0,0,1-3.761,2.188v2.212a2.344,2.344,0,0,1-2.344,2.344h-9.375a2.344,2.344,0,0,1-2.344-2.344v-2.212a17.727,17.727,0,0,1-3.761-2.188l-1.93,1.114a2.344,2.344,0,0,1-3.2-.858l-4.687-8.119a2.344,2.344,0,0,1,.858-3.2l1.922-1.11a17.586,17.586,0,0,1-.137-2.176,17.586,17.586,0,0,1,.137-2.176l-1.922-1.11a2.344,2.344,0,0,1-.858-3.2l4.688-8.119a2.344,2.344,0,0,1,3.2-.858l1.93,1.114a17.726,17.726,0,0,1,3.761-2.187v-2.213A2.344,2.344,0,0,1-295.662-180Zm7.031,4.687h-4.687v1.5a2.344,2.344,0,0,1-1.641,2.236,13.161,13.161,0,0,0-4.979,2.9,2.344,2.344,0,0,1-2.756.3l-1.316-.76-2.344,4.059,1.306.754a2.344,2.344,0,0,1,1.116,2.536,13.372,13.372,0,0,0-.324,2.883,13.372,13.372,0,0,0,.324,2.883,2.344,2.344,0,0,1-1.116,2.536l-1.306.754,2.344,4.059,1.316-.76a2.344,2.344,0,0,1,2.756.3,13.161,13.161,0,0,0,4.979,2.9A2.344,2.344,0,0,1-293.318-144v1.5h4.688V-144a2.344,2.344,0,0,1,1.641-2.236,13.161,13.161,0,0,0,4.979-2.9,2.344,2.344,0,0,1,2.756-.3l1.316.76,2.344-4.059-1.306-.754a2.344,2.344,0,0,1-1.116-2.536,13.372,13.372,0,0,0,.324-2.883,13.372,13.372,0,0,0-.324-2.883,2.344,2.344,0,0,1,1.116-2.536l1.306-.754-2.344-4.059-1.316.76a2.344,2.344,0,0,1-2.756-.3,13.161,13.161,0,0,0-4.979-2.9,2.344,2.344,0,0,1-1.641-2.236Z" transform="translate(311.9 180)" fill="#000"/>
        </g>
        <g id="g3404" transform="translate(32.969 14.062)" opacity="0.4">
          <path id="path3406" d="M-92.968-60a7.039,7.039,0,0,1,7.031,7.031,7.039,7.039,0,0,1-7.031,7.031A7.039,7.039,0,0,1-100-52.969,7.039,7.039,0,0,1-92.968-60Zm0,9.375a2.346,2.346,0,0,0,2.344-2.344,2.346,2.346,0,0,0-2.344-2.344,2.346,2.346,0,0,0-2.344,2.344A2.346,2.346,0,0,0-92.968-50.625Z" transform="translate(100 60)" fill="#000"/>
        </g>
        <g id="g3408" transform="translate(64.219 18.75)">
          <path id="path3410" d="M-11.406,3.75A2.344,2.344,0,0,1-13.75,1.406V-15.312h-3.906A2.344,2.344,0,0,1-20-17.656,2.344,2.344,0,0,1-17.656-20h6.25a2.344,2.344,0,0,1,2.344,2.344V1.406A2.344,2.344,0,0,1-11.406,3.75Z" transform="translate(20 20)" fill="#000" opacity="0.4"/>
        </g>
        <g id="g3412" transform="translate(4.844 18.75)">
          <path id="path3414" d="M-70.989,3.75a2.344,2.344,0,0,1-2.344-2.344V-17.656A2.344,2.344,0,0,1-70.989-20h6.25A2.344,2.344,0,0,1-62.4-17.656a2.344,2.344,0,0,1-2.344,2.344h-3.906V1.406A2.344,2.344,0,0,1-70.989,3.75Z" transform="translate(73.333 20)" fill="#000" opacity="0.4"/>
        </g>
      </g>
    </g>
  </g>
</svg>
