<svg xmlns="http://www.w3.org/2000/svg" width="80.314" height="80" viewBox="0 0 80.314 80">
  <g id="web-development" transform="translate(0 -1)">
    <path id="Path_128" data-name="Path 128" d="M73.255,1H7.059A7.067,7.067,0,0,0,0,8.059V73.941A7.067,7.067,0,0,0,7.059,81h66.2a7.067,7.067,0,0,0,7.059-7.059V8.059A7.067,7.067,0,0,0,73.255,1ZM7.059,5.706h66.2a2.356,2.356,0,0,1,2.353,2.353V19.824H4.706V8.059A2.356,2.356,0,0,1,7.059,5.706Zm66.2,70.588H7.059a2.356,2.356,0,0,1-2.353-2.353V24.529h70.9V73.941A2.356,2.356,0,0,1,73.255,76.294Z" fill="#000"/>
    <path id="Path_129" data-name="Path 129" d="M213.508,196.189a2.368,2.368,0,0,0-3.11,1.244l-14.21,33.157a2.368,2.368,0,0,0,4.354,1.866l14.21-33.157A2.368,2.368,0,0,0,213.508,196.189Z" transform="translate(-165.313 -164.732)" fill="#000" opacity="0.4"/>
    <path id="Path_130" data-name="Path 130" d="M92.063,241.888a2.368,2.368,0,0,0-3.329-.37l-11.842,9.473a2.369,2.369,0,0,0,0,3.7l11.842,9.473a2.368,2.368,0,1,0,2.959-3.7l-9.53-7.624,9.53-7.624a2.368,2.368,0,0,0,.37-3.329Z" transform="translate(-64.004 -202.455)" fill="#000"/>
    <path id="Path_131" data-name="Path 131" d="M346.689,250.991l-11.842-9.473a2.368,2.368,0,1,0-2.959,3.7l9.53,7.624-9.53,7.624a2.368,2.368,0,1,0,2.959,3.7l11.842-9.473A2.369,2.369,0,0,0,346.689,250.991Z" transform="translate(-279.264 -202.455)" fill="#000"/>
    <circle id="Ellipse_3" data-name="Ellipse 3" cx="2.5" cy="2.5" r="2.5" transform="translate(9 10)" fill="#000"/>
    <circle id="Ellipse_4" data-name="Ellipse 4" cx="2.5" cy="2.5" r="2.5" transform="translate(18.868 10)" fill="#000"/>
    <circle id="Ellipse_5" data-name="Ellipse 5" cx="2.5" cy="2.5" r="2.5" transform="translate(27.806 10)" fill="#000"/>
    <path id="Path_132" data-name="Path 132" d="M333.368,65.737h14.21a2.368,2.368,0,1,0,0-4.737h-14.21a2.368,2.368,0,0,0,0,4.737Z" transform="translate(-279.264 -50.527)" fill="#000"/>
  </g>
</svg>
