<svg width="41" height="41" viewBox="0 0 41 41" fill="none" xmlns="http://www.w3.org/2000/svg"><g id="mission 1" clip-path="url(#clip0_220_23)"><g id="g2031"><g id="g2033"><g id="Clip path group"><mask id="mask0_220_23" style="mask-type:luminance" maskUnits="userSpaceOnUse" x="0" y="0" width="41" height="41"><g id="clip-path"><path id="path2037" d="M0 0H41V41H0V0Z" fill="white"/></g></mask><g mask="url(#mask0_220_23)"><g id="g2035"><g id="g2041" opacity="0.4"><path id="path2043" d="M20.5 16.096C21.6662 16.0984 22.784 16.5627 23.6086 17.3874C24.4333 18.212 24.8976 19.3298 24.9 20.496C24.8976 21.6622 24.4333 22.78 23.6086 23.6047C22.784 24.4293 21.6662 24.8936 20.5 24.896C19.3338 24.8936 18.216 24.4293 17.3913 23.6047C16.5667 22.78 16.1024 21.6622 16.1 20.496C16.1024 19.3298 16.5667 18.212 17.3913 17.3874C18.216 16.5627 19.3338 16.0984 20.5 16.096ZM20.5 22.502C21.0304 22.502 21.5391 22.2913 21.9142 21.9162C22.2893 21.5411 22.5 21.0324 22.5 20.502C22.5 19.9716 22.2893 19.4629 21.9142 19.0878C21.5391 18.7127 21.0304 18.502 20.5 18.502C19.9695 18.502 19.4608 18.7127 19.0858 19.0878C18.7107 19.4629 18.5 19.9716 18.5 20.502C18.5 21.0324 18.7107 21.5411 19.0858 21.9162C19.4608 22.2913 19.9695 22.502 20.5 22.502Z" fill="white"/></g><g id="rotate" style="transform-origin: center; transform-box: fill-box; animation: spinner 2s linear infinite;"><g id="g2045"><path id="path2047" d="M20.282 8.00896C23.5935 7.95486 26.7912 9.21656 29.1737 11.5172C31.5561 13.8179 32.9286 16.9697 32.9901 20.281C33.0442 23.5926 31.7825 26.7903 29.4818 29.1727C27.1812 31.5551 24.0294 32.9276 20.718 32.9891C17.4065 33.0435 14.2087 31.7821 11.8261 29.4816C9.44349 27.1811 8.0707 24.0295 8.00893 20.7181C7.95456 17.4062 9.21625 14.2081 11.5172 11.8254C13.8181 9.44276 16.9703 8.0702 20.282 8.00896ZM20.6761 30.5875C23.3509 30.5382 25.8968 29.4297 27.7552 27.5053C29.6135 25.5809 30.6325 22.9978 30.5885 20.323C30.5391 17.6482 29.4306 15.1023 27.5062 13.2439C25.5818 11.3855 22.9988 10.3665 20.3239 10.4106C17.6492 10.4599 15.1032 11.5684 13.2448 13.4928C11.3865 15.4172 10.3675 18.0003 10.4116 20.6752C10.4609 23.3499 11.5694 25.8958 13.4938 27.7542C15.4182 29.6126 18.0013 30.6316 20.6761 30.5875Z" fill="white"/></g><g id="g2049"><path id="path2051" d="M20.2001 3.20467C24.7864 3.12885 29.2155 4.87587 32.515 8.06223C35.8146 11.2486 37.7151 15.6139 37.7994 20.2001C37.8752 24.7864 36.1282 29.2154 32.9419 32.515C29.7555 35.8146 25.3902 37.7151 20.804 37.7994C16.2177 37.8752 11.7886 36.1282 8.48905 32.9418C5.18948 29.7555 3.28899 25.3901 3.2047 20.8039C3.12888 16.2176 4.87587 11.7886 8.06223 8.48905C11.2486 5.18948 15.614 3.28895 20.2001 3.20467ZM20.7619 35.3908C24.7093 35.3171 28.4663 33.681 31.2091 30.8411C33.9518 28.0013 35.4564 24.1897 35.3928 20.2421C35.3209 16.2931 33.6853 12.534 30.8448 9.7897C28.0043 7.04539 24.1911 5.54013 20.242 5.60429C16.2918 5.67616 12.5317 7.3128 9.78718 10.1548C7.0427 12.9968 5.53832 16.8118 5.60436 20.7621C5.67831 24.7108 7.31581 28.469 10.1575 31.2117C12.9993 33.9545 16.8131 35.4578 20.762 35.3918L20.7619 35.3908Z" fill="white"/></g><g id="g2053"><path id="path2055" d="M39.817 21.362L28.6077 21.5577C28.2895 21.5633 27.9821 21.4422 27.7532 21.2211C27.5243 21 27.3925 20.697 27.387 20.3788C27.3814 20.0606 27.5025 19.7532 27.7236 19.5243C27.9447 19.2954 28.2476 19.1636 28.5658 19.1581L39.7751 18.9624C40.0933 18.9569 40.4007 19.0779 40.6297 19.299C40.8586 19.5201 40.9903 19.8231 40.9959 20.1413C41.0014 20.4595 40.8804 20.7669 40.6593 20.9958C40.4382 21.2248 40.1352 21.3565 39.817 21.362Z" fill="white"/></g><g id="g2057"><path id="path2059" d="M12.4341 21.84L1.22485 22.0357C0.906643 22.0412 0.59926 21.9201 0.370323 21.6991C0.141387 21.478 0.0096516 21.175 0.0040972 20.8568C-0.0014572 20.5386 0.119624 20.2312 0.340706 20.0023C0.561788 19.7733 0.864757 19.6416 1.18297 19.636L12.3923 19.4404C12.7105 19.4348 13.0179 19.5559 13.2468 19.777C13.4757 19.9981 13.6075 20.301 13.613 20.6193C13.6186 20.9375 13.4975 21.2449 13.2764 21.4738C13.0553 21.7027 12.7524 21.8345 12.4341 21.84Z" fill="white"/></g><g id="g2061"><path id="path2063" d="M20.3788 13.6141C20.0606 13.6196 19.7532 13.4986 19.5243 13.2775C19.2953 13.0564 19.1636 12.7534 19.158 12.4352L18.9623 1.22393C18.9568 0.905716 19.0779 0.598329 19.299 0.369392C19.52 0.140455 19.823 0.00872039 20.1412 0.00316599C20.4594 -0.00238841 20.7668 0.118693 20.9958 0.339775C21.2247 0.560856 21.3564 0.86383 21.362 1.18204L21.5577 12.3923C21.5605 12.55 21.5323 12.7066 21.4746 12.8534C21.4169 13.0001 21.3309 13.134 21.2214 13.2475C21.1119 13.361 20.9812 13.4517 20.8366 13.5146C20.692 13.5775 20.5365 13.6113 20.3788 13.6141Z" fill="white"/></g><g id="g2065"><path id="path2067" d="M20.8568 40.997C20.5386 41.0025 20.2312 40.8814 20.0022 40.6604C19.7733 40.4393 19.6416 40.1363 19.636 39.8181L19.4403 28.6068C19.4348 28.2886 19.5558 27.9812 19.7769 27.7523C19.998 27.5233 20.301 27.3916 20.6192 27.386C20.9374 27.3805 21.2448 27.5016 21.4737 27.7226C21.7027 27.9437 21.8344 28.2467 21.8399 28.5649L22.0356 39.7752C22.0385 39.9329 22.0103 40.0895 21.9526 40.2363C21.8949 40.383 21.8089 40.5169 21.6994 40.6304C21.5899 40.7438 21.4591 40.8346 21.3146 40.8975C21.17 40.9604 21.0144 40.9942 20.8568 40.997Z" fill="white"/></g></g></g></g></g></g></g></g><defs><clipPath id="clip0_220_23"><rect width="41" height="41" fill="white"/></clipPath></defs><style> @keyframes spinner { 0% { transform: rotate(0deg); } 100% { transform: rotate(360deg); } }</style></svg>