<svg id="video" xmlns="http://www.w3.org/2000/svg" width="40" height="40" viewBox="0 0 40 40">
  <path id="Path_11" data-name="Path 11" d="M0,0H40V40H0Z" fill="none"/>
  <path id="Path_12" data-name="Path 12" d="M18.917,35.833A16.917,16.917,0,1,1,35.833,18.917,16.916,16.916,0,0,1,18.917,35.833Zm0-3.383A13.533,13.533,0,1,0,5.383,18.917,13.533,13.533,0,0,0,18.917,32.45Zm-2.331-19.6,8.254,5.5a.677.677,0,0,1,0,1.127l-8.255,5.5a.677.677,0,0,1-1.051-.562V13.414a.677.677,0,0,1,1.052-.562Z" transform="translate(1.083 1.083)"/>
</svg>
