<svg width="500" height="31" viewBox="0 0 500 31" fill="none" xmlns="http://www.w3.org/2000/svg"><g id="contact_word 1" style="transform-origin: center; transform-box: fill-box; animation: sideClip 5s linear infinite alternate;" clip-path="url(#clip0_210_25)"><path id="contact_word" d="M6.64101 25.501C6.63757 25.2596 6.68401 25.02 6.77745 24.7974C6.87089 24.5747 7.0093 24.3737 7.18401 24.207C7.35299 24.0341 7.55538 23.8973 7.77885 23.805C8.00233 23.7127 8.24222 23.6668 8.48399 23.67C8.72764 23.6661 8.96959 23.7116 9.19511 23.8039C9.42064 23.8962 9.62505 24.0334 9.79601 24.207C9.97071 24.3737 10.1091 24.5747 10.2026 24.7974C10.296 25.02 10.3424 25.2596 10.339 25.501C10.3426 25.7422 10.2956 25.9814 10.2011 26.2032C10.1065 26.4251 9.96645 26.6246 9.78999 26.789C9.61873 26.9602 9.41495 27.0953 9.19066 27.1865C8.96637 27.2777 8.7261 27.3231 8.48399 27.32C8.24222 27.3233 8.00233 27.2774 7.77885 27.185C7.55538 27.0927 7.35299 26.956 7.18401 26.783C7.01012 26.6182 6.87214 26.4193 6.7787 26.1987C6.68526 25.9781 6.63838 25.7406 6.64101 25.501ZM11.182 25.501C11.1786 25.2596 11.225 25.02 11.3185 24.7974C11.4119 24.5747 11.5503 24.3737 11.725 24.207C11.894 24.0341 12.0964 23.8973 12.3198 23.805C12.5433 23.7127 12.7832 23.6668 13.025 23.67C13.2687 23.6661 13.5106 23.7116 13.7361 23.8039C13.9616 23.8962 14.1661 24.0334 14.337 24.207C14.5117 24.3737 14.6501 24.5747 14.7435 24.7974C14.837 25.02 14.8835 25.2596 14.88 25.501C14.8836 25.7422 14.8366 25.9814 14.7421 26.2032C14.6475 26.4251 14.5075 26.6246 14.331 26.789C14.1597 26.9602 13.956 27.0953 13.7317 27.1865C13.5074 27.2777 13.2671 27.3231 13.025 27.32C12.7832 27.3233 12.5433 27.2774 12.3198 27.185C12.0964 27.0927 11.894 26.956 11.725 26.783C11.5511 26.6182 11.4131 26.4193 11.3197 26.1987C11.2263 25.9781 11.1794 25.7406 11.182 25.501ZM18.933 11.048C18.6063 11.0855 18.2837 11.1525 17.969 11.248C17.191 11.3964 16.4725 11.7666 15.9 12.314C15.7104 12.5176 15.5775 12.7672 15.5143 13.0381C15.4511 13.3089 15.46 13.5916 15.54 13.858C15.645 14.2122 15.8013 14.5491 16.004 14.858C16.24 15.2407 16.6067 15.7617 17.104 16.421L17.604 17.068C18.1286 17.7252 18.6001 18.4231 19.014 19.155C19.5006 20.155 19.8591 21.2123 20.081 22.302H6.89702C4.52102 22.302 2.75901 21.704 1.61101 20.508C1.03879 19.852 0.601896 19.0893 0.325424 18.2638C0.0489519 17.4383 -0.0616329 16.5664 1.4862e-05 15.698V12.366H3.18602V15.686C3.16123 16.3918 3.28595 17.0948 3.55202 17.749C3.77505 18.3039 4.19135 18.7592 4.72401 19.031C5.40593 19.3374 6.1502 19.4795 6.89702 19.446H15.161L14.282 18.335C13.7904 17.6983 13.3328 17.036 12.911 16.351C12.5734 15.7976 12.3145 15.1999 12.142 14.575C11.9312 13.9376 11.8941 13.2554 12.0347 12.5989C12.1754 11.9423 12.4885 11.3352 12.942 10.84C14.1199 9.65084 15.6198 8.83192 17.257 8.48402C18.5871 8.13374 19.9364 7.86061 21.298 7.66602L22.067 9.50902L26.108 18.509C26.2821 18.8354 26.5522 19.1006 26.8818 19.2687C27.2113 19.4368 27.5845 19.4997 27.951 19.449H28.329L29.086 19.754V22.046L28.305 22.302H27.182C26.1777 22.3306 25.1849 22.0814 24.313 21.582C23.991 21.3801 23.7362 21.087 23.581 20.74L18.933 11.048ZM34.058 14.222L33.899 14.906C33.7616 15.3454 33.714 15.808 33.759 16.2661C33.804 16.7243 33.9407 17.1688 34.161 17.573C34.43 17.9419 34.7701 18.2534 35.1611 18.4891C35.5521 18.7249 35.9862 18.8802 36.438 18.946C37.0446 19.0976 37.6757 19.1245 38.293 19.025C38.7935 18.9483 39.2615 18.7301 39.642 18.396C39.9966 18.0619 40.2408 17.6276 40.342 17.151C40.4417 16.7998 40.4504 16.4289 40.3671 16.0734C40.2838 15.7179 40.1114 15.3894 39.866 15.119C39.5368 14.8043 39.1448 14.5627 38.7157 14.4102C38.2865 14.2577 37.83 14.1977 37.376 14.234L34.058 14.222ZM41.358 20.85C40.6989 21.4404 39.9072 21.8633 39.05 22.083C37.9612 22.36 36.8208 22.3641 35.73 22.095C34.4074 21.7404 33.2344 20.969 32.385 19.895C32.074 20.7068 31.5139 21.3993 30.785 21.873C30.1706 22.1604 29.4982 22.3024 28.82 22.288H27.611L27.172 22.068V19.446H27.978C28.7445 19.4513 29.4819 19.1529 30.029 18.616C30.3623 18.2334 30.9564 15.7267 31.811 11.096L37.878 11.047C39.0798 11.0004 40.2597 11.3781 41.211 12.114C42.0482 12.7672 42.678 13.6491 43.024 14.653C43.3537 15.6702 43.3884 16.76 43.124 17.796C43.1085 17.8745 43.0881 17.952 43.063 18.028C43.2357 18.2727 43.4234 18.5065 43.625 18.728C43.8942 18.9822 44.2134 19.1774 44.5622 19.3014C44.911 19.4254 45.2818 19.4753 45.651 19.448H46.029L46.786 19.753V22.046L46.005 22.302H45.126C44.1217 22.3306 43.1289 22.0814 42.257 21.582C41.9246 21.3813 41.622 21.1349 41.358 20.85ZM54.725 19.45L55.445 16.203C55.5833 15.7698 55.6272 15.3119 55.5735 14.8603C55.5199 14.4087 55.37 13.9738 55.134 13.585C54.9225 13.2881 54.6405 13.0484 54.3134 12.8875C53.9863 12.7265 53.6243 12.6494 53.26 12.663C52.774 12.652 52.2964 12.7917 51.893 13.063C51.4804 13.3591 51.1623 13.7682 50.977 14.241C50.7446 14.825 50.6324 15.4497 50.647 16.078C50.613 16.5322 50.6688 16.9885 50.8112 17.4211C50.9536 17.8537 51.1799 18.2539 51.477 18.599C51.8211 18.9043 52.2235 19.1368 52.6598 19.2826C53.0961 19.4283 53.5575 19.4842 54.016 19.447L54.725 19.45ZM48.438 19.45C47.7304 18.4661 47.3692 17.2752 47.411 16.064C47.392 14.9411 47.6478 13.8305 48.156 12.829C48.6248 11.9063 49.3439 11.1342 50.231 10.601C51.1429 10.0611 52.1864 9.78421 53.246 9.80102C54.3138 9.78198 55.3659 10.0589 56.286 10.601C57.1916 11.1547 57.9135 11.9635 58.361 12.926C58.8648 14.019 58.9726 15.2532 58.666 16.417L57.288 22.302H45.311L44.762 22.07V19.678L45.311 19.446L48.438 19.45ZM51.307 8.28102C51.0892 8.28426 50.873 8.2432 50.6715 8.16034C50.4701 8.07749 50.2875 7.95456 50.135 7.79902C49.9785 7.6507 49.8544 7.47162 49.7704 7.27303C49.6864 7.07443 49.6444 6.86062 49.647 6.64502C49.6436 6.42753 49.6852 6.21168 49.7691 6.01103C49.8531 5.81037 49.9777 5.62925 50.135 5.47902C50.2875 5.32348 50.4701 5.20056 50.6715 5.1177C50.873 5.03484 51.0892 4.99379 51.307 4.99702C51.5267 4.99303 51.7449 5.03369 51.9485 5.11654C52.152 5.19939 52.3366 5.32271 52.491 5.47902C52.6483 5.62925 52.7729 5.81037 52.8569 6.01103C52.9408 6.21168 52.9824 6.42753 52.979 6.64502C52.9826 6.8622 52.9405 7.07771 52.8554 7.27756C52.7703 7.4774 52.6441 7.65711 52.485 7.80502C52.3302 7.95734 52.1468 8.07741 51.9452 8.15827C51.7437 8.23912 51.5281 8.27915 51.311 8.27602L51.307 8.28102ZM55.714 8.28102C55.4962 8.28426 55.28 8.2432 55.0785 8.16034C54.8771 8.07749 54.6945 7.95456 54.542 7.79902C54.3855 7.6507 54.2614 7.47162 54.1774 7.27303C54.0934 7.07443 54.0514 6.86062 54.054 6.64502C54.0506 6.42753 54.0922 6.21168 54.1762 6.01103C54.2601 5.81037 54.3847 5.62925 54.542 5.47902C54.6945 5.32348 54.8771 5.20056 55.0785 5.1177C55.28 5.03484 55.4962 4.99379 55.714 4.99702C55.9337 4.99303 56.1519 5.03369 56.3555 5.11654C56.559 5.19939 56.7435 5.32271 56.898 5.47902C57.0553 5.62925 57.1799 5.81037 57.2639 6.01103C57.3478 6.21168 57.3894 6.42753 57.386 6.64502C57.3896 6.8622 57.3475 7.07771 57.2624 7.27756C57.1773 7.4774 57.0511 7.65711 56.892 7.80502C56.7364 7.95819 56.5518 8.07875 56.349 8.15963C56.1462 8.24051 55.9293 8.28008 55.711 8.27602L55.714 8.28102ZM67.993 22.302C68.0294 23.8012 67.4872 25.2569 66.479 26.367C65.2248 27.4781 63.6134 28.102 61.938 28.125H59.611V25.098H61.796C62.2051 25.1324 62.6169 25.0807 63.0048 24.9462C63.3927 24.8116 63.748 24.5973 64.048 24.317C64.5975 23.5905 64.8563 22.6852 64.774 21.778V10.144H68.094V19.444H70.914L71.463 19.676V22.07L70.914 22.302H67.993ZM70.874 22.302H70.093L69.544 22.07V19.678L70.093 19.446H70.508C70.8927 19.481 71.2804 19.4361 71.6469 19.3143C72.0134 19.1925 72.3508 18.9963 72.638 18.738C73.1517 18.0381 73.3886 17.173 73.303 16.309V3.71402H76.538V16.314C76.6539 17.9347 76.135 19.537 75.091 20.782C74.5329 21.3153 73.8694 21.726 73.1432 21.9878C72.417 22.2495 71.644 22.3566 70.874 22.302ZM79.846 3.71102H83.032V8.74002L83.056 22.302H79.821L79.845 8.74002L79.846 3.71102ZM97.925 27.149C96.6874 27.1814 95.466 26.8617 94.403 26.227C93.4036 25.6003 92.615 24.6884 92.139 23.609C91.5934 22.355 91.3269 20.9973 91.358 19.63V15.845H94.544V19.614C94.5197 20.4593 94.6649 21.3008 94.971 22.089C95.2112 22.7036 95.6289 23.2328 96.171 23.609C96.692 23.9532 97.3047 24.132 97.929 24.122C98.5476 24.1317 99.1546 23.9528 99.669 23.609C100.206 23.2292 100.616 22.6979 100.849 22.083C101.174 21.1209 101.317 20.1065 101.27 19.092V3.71402H104.419V20.984C104.359 22.1521 104.024 23.2896 103.442 24.304C102.915 25.1979 102.15 25.9282 101.233 26.414C100.208 26.9272 99.0713 27.1793 97.925 27.148V27.149ZM115.906 19.449L115.894 16.837C115.99 15.7156 115.755 14.5907 115.217 13.602C115.001 13.2966 114.712 13.0504 114.376 12.8861C114.04 12.7218 113.668 12.6448 113.294 12.662C112.818 12.6555 112.353 12.7986 111.963 13.071C111.552 13.369 111.231 13.7745 111.035 14.243C110.797 14.8042 110.68 15.4095 110.693 16.019C110.613 16.9586 110.904 17.8922 111.505 18.619C111.854 18.9217 112.26 19.1511 112.699 19.2937C113.138 19.4362 113.602 19.4891 114.062 19.449H115.906ZM118.906 22.305C118.683 23.6575 118.053 24.9096 117.099 25.894C115.748 27.2274 113.693 27.894 110.934 27.894H107.601V24.914H110.97C112.13 24.9913 113.286 24.7193 114.29 24.133C114.962 23.723 115.446 23.0654 115.637 22.302H114.062C112.273 22.4346 110.503 21.8678 109.124 20.721C108.535 20.0951 108.082 19.3533 107.796 18.5429C107.509 17.7325 107.394 16.8712 107.459 16.014C107.441 14.9023 107.697 13.8033 108.204 12.814C108.676 11.8963 109.394 11.1288 110.279 10.598C111.191 10.0581 112.234 9.78121 113.294 9.79802C114.362 9.77898 115.414 10.0559 116.334 10.598C117.233 11.1445 117.951 11.9447 118.397 12.898C118.905 13.9904 119.155 15.1847 119.129 16.389V19.441H121.629L122.178 19.673V22.07L121.629 22.302L118.906 22.305ZM120.932 22.305L121.042 19.449H133.75V20.449C133.386 20.1089 133.069 19.7207 132.81 19.295C132.51 18.7576 132.245 18.2011 132.017 17.629L131.236 15.81C130.948 15.0796 130.579 14.3836 130.136 13.735C129.875 13.347 129.514 13.0362 129.092 12.835C128.625 12.6669 128.129 12.5902 127.633 12.609H124.133V9.74002H127.624C128.614 9.71252 129.602 9.84765 130.548 10.14C131.333 10.42 132.026 10.9122 132.548 11.562C133.24 12.4625 133.791 13.4625 134.184 14.528L134.941 16.383C135.192 17.0257 135.501 17.6445 135.863 18.232C136.068 18.5774 136.34 18.8783 136.663 19.117C137.048 19.3179 137.474 19.4306 137.908 19.447H139.202L139.751 19.679V22.131L139.177 22.302L120.932 22.305ZM148.569 19.729V22.07L148.02 22.302H147.056C146.173 22.2862 145.311 22.0263 144.566 21.551C143.707 21.0156 143.043 20.217 142.674 19.274H143.59C143.318 20.1763 142.766 20.9689 142.015 21.538C141.089 22.1051 140.01 22.3716 138.927 22.301H138.527L137.978 22.069V19.678L138.527 19.446H138.927C139.297 19.4733 139.668 19.4228 140.017 19.2978C140.366 19.1727 140.685 18.9759 140.953 18.72C141.202 18.4033 141.383 18.0391 141.486 17.6499C141.59 17.2606 141.612 16.8544 141.553 16.456V11.366H144.995V16.456C144.936 16.8544 144.958 17.2606 145.062 17.6499C145.165 18.0391 145.346 18.4033 145.595 18.72C145.863 18.9759 146.182 19.1727 146.531 19.2978C146.88 19.4228 147.251 19.4733 147.621 19.446H148.036L148.569 19.729ZM141.281 9.47502C141.063 9.47773 140.847 9.43622 140.646 9.35303C140.445 9.26983 140.263 9.14668 140.111 8.99102C139.955 8.8427 139.83 8.66362 139.746 8.46502C139.662 8.26643 139.62 8.05262 139.623 7.83702C139.62 7.61953 139.661 7.40368 139.745 7.20303C139.829 7.00237 139.954 6.82125 140.111 6.67102C140.264 6.51548 140.446 6.39256 140.648 6.3097C140.849 6.22684 141.065 6.18579 141.283 6.18902C141.503 6.18503 141.721 6.22569 141.924 6.30854C142.128 6.39139 142.313 6.51471 142.467 6.67102C142.624 6.82125 142.749 7.00237 142.833 7.20303C142.917 7.40368 142.958 7.61953 142.955 7.83702C142.959 8.0542 142.916 8.26971 142.831 8.46956C142.746 8.6694 142.62 8.84911 142.461 8.99702C142.306 9.15061 142.123 9.27181 141.92 9.35354C141.718 9.43527 141.502 9.47589 141.284 9.47302L141.281 9.47502ZM145.688 9.47502C145.47 9.47826 145.254 9.4372 145.053 9.35434C144.851 9.27149 144.669 9.14856 144.516 8.99302C144.36 8.8447 144.235 8.66562 144.151 8.46702C144.067 8.26843 144.025 8.05462 144.028 7.83902C144.025 7.62153 144.066 7.40568 144.15 7.20503C144.234 7.00437 144.359 6.82325 144.516 6.67302C144.669 6.51748 144.851 6.39456 145.053 6.3117C145.254 6.22884 145.47 6.18779 145.688 6.19102C145.908 6.18703 146.126 6.22769 146.329 6.31054C146.533 6.39339 146.718 6.51671 146.872 6.67302C147.029 6.82325 147.154 7.00437 147.238 7.20503C147.322 7.40568 147.363 7.62153 147.36 7.83902C147.364 8.0562 147.321 8.27171 147.236 8.47156C147.151 8.6714 147.025 8.85111 146.866 8.99902C146.711 9.15201 146.528 9.2727 146.326 9.35407C146.124 9.43545 145.908 9.47588 145.691 9.47302L145.688 9.47502ZM148.088 22.305H147.307L146.758 22.073V19.678L147.307 19.446H147.722C148.107 19.481 148.494 19.4361 148.861 19.3143C149.227 19.1925 149.565 18.9963 149.852 18.738C150.366 18.0381 150.603 17.173 150.517 16.309V3.71402H153.752V16.314C153.868 17.9319 153.351 19.5316 152.311 20.776C151.754 21.3101 151.091 21.7218 150.365 21.9846C149.639 22.2474 148.866 22.3555 148.096 22.302L148.088 22.305ZM157.06 3.71402H160.246V8.74302L160.27 22.305H157.035L157.059 8.74302L157.06 3.71402ZM177.96 14.224L177.801 14.908C177.664 15.3477 177.617 15.8107 177.663 16.269C177.709 16.7274 177.848 17.1716 178.07 17.575C178.339 17.9427 178.678 18.2533 179.068 18.489C179.458 18.7246 179.891 18.8807 180.341 18.948C180.95 19.0998 181.583 19.1266 182.203 19.027C182.706 18.9511 183.176 18.7329 183.558 18.398C183.913 18.0654 184.154 17.63 184.248 17.153C184.344 16.8014 184.35 16.4315 184.267 16.0767C184.184 15.7219 184.014 15.3935 183.772 15.121C183.444 14.805 183.052 14.5626 182.622 14.4099C182.193 14.2573 181.736 14.198 181.282 14.236L177.96 14.224ZM185.16 20.95C184.519 21.4857 183.767 21.8726 182.959 22.083C181.87 22.36 180.73 22.3641 179.639 22.095C178.568 21.8044 177.586 21.2506 176.783 20.484C176.588 21.2387 176.271 21.9563 175.843 22.608C174.799 23.8595 173.347 24.7024 171.743 24.988L168.143 25.842L167.459 22.827L170.95 21.85C171.603 21.7311 172.228 21.491 172.793 21.142C173.32 20.8004 173.705 20.2802 173.879 19.677C174.001 19.3024 174.123 18.863 174.245 18.359L175.734 11.047H181.776C182.983 11.0002 184.168 11.3777 185.126 12.114C185.965 12.764 186.594 13.6472 186.933 14.653C187.255 15.6716 187.289 16.7591 187.033 17.796C187 17.9347 186.964 18.073 186.923 18.211C187.086 18.4224 187.228 18.5934 187.35 18.724C187.618 18.9794 187.937 19.1755 188.286 19.2995C188.635 19.4236 189.007 19.4728 189.376 19.444H190.076L190.515 19.713V22.083L190.076 22.303H188.855C187.851 22.3316 186.858 22.0824 185.986 21.583C185.69 21.403 185.416 21.1896 185.169 20.947L185.16 20.95ZM190.06 22.305H189.279L188.73 22.073V19.678L189.279 19.446H189.694C190.079 19.481 190.466 19.4361 190.833 19.3143C191.199 19.1925 191.537 18.9963 191.824 18.738C192.338 18.0381 192.575 17.173 192.489 16.309V3.71402H195.724V16.314C195.84 17.9347 195.321 19.537 194.277 20.782C193.719 21.3148 193.056 21.7252 192.331 21.9869C191.606 22.2487 190.833 22.356 190.064 22.302L190.06 22.305ZM204.525 22.305C203.753 22.36 202.979 22.2526 202.251 21.9898C201.524 21.7269 200.859 21.3145 200.301 20.779C199.261 19.532 198.745 17.9306 198.861 16.311L198.8 8.59602V3.71402H202.145V8.59702L202.096 16.312C202.011 17.1751 202.245 18.0393 202.755 18.741C203.043 19.0004 203.381 19.1972 203.749 19.319C204.116 19.4409 204.505 19.4852 204.891 19.449H205.428L206.099 19.693V22.058L205.428 22.302L204.525 22.305ZM208.212 19.449C207.976 19.0337 207.85 18.8057 207.834 18.765C207.309 17.7839 207.024 16.6918 207.004 15.579C206.987 14.4001 207.299 13.2397 207.904 12.228C208.505 11.236 209.374 10.4339 210.411 9.91402C211.543 9.34723 212.795 9.06248 214.061 9.08402C215.15 9.11706 216.232 9.2768 217.284 9.56002L216.918 12.905C216.077 12.5659 215.186 12.3633 214.281 12.305C213.552 12.2829 212.826 12.4052 212.145 12.665C211.587 12.896 211.108 13.284 210.766 13.782C210.409 14.3109 210.225 14.938 210.241 15.576C210.257 16.3399 210.523 17.0774 210.998 17.676C211.528 18.3775 212.285 18.8725 213.14 19.076C214.192 19.3395 215.273 19.4645 216.357 19.448H219.557V22.314L204.677 22.302L204.128 22.07V19.678L204.677 19.446L208.212 19.449ZM235.666 19.449L235.654 16.837C235.75 15.7156 235.515 14.5907 234.977 13.602C234.761 13.2966 234.472 13.0504 234.136 12.8861C233.8 12.7218 233.428 12.6448 233.054 12.662C232.578 12.6555 232.113 12.7986 231.723 13.071C231.312 13.369 230.991 13.7745 230.795 14.243C230.557 14.8042 230.44 15.4095 230.453 16.019C230.373 16.9586 230.664 17.8922 231.265 18.619C231.614 18.9217 232.02 19.1511 232.459 19.2937C232.899 19.4362 233.362 19.4891 233.822 19.449H235.666ZM238.666 22.305C238.443 23.6575 237.813 24.9096 236.859 25.894C235.508 27.2274 233.453 27.894 230.694 27.894H227.361V24.914H230.73C231.89 24.9913 233.046 24.7193 234.05 24.133C234.723 23.7238 235.209 23.0661 235.401 22.302H233.826C232.037 22.4346 230.267 21.8678 228.888 20.721C228.299 20.0952 227.846 19.3534 227.559 18.543C227.272 17.7326 227.158 16.8713 227.222 16.014C227.204 14.9023 227.46 13.8033 227.967 12.814C228.439 11.8963 229.157 11.1288 230.042 10.598C230.954 10.0581 231.997 9.78121 233.057 9.79802C234.125 9.77898 235.177 10.0559 236.097 10.598C236.996 11.1445 237.714 11.9447 238.16 12.898C238.668 13.9904 238.918 15.1847 238.892 16.389V19.441H241.392L241.941 19.673V22.07L241.392 22.302L238.666 22.305ZM240.692 22.305L240.802 19.449H253.511V20.449C253.147 20.1089 252.83 19.7207 252.571 19.295C252.271 18.7576 252.006 18.2011 251.778 17.629L250.997 15.81C250.709 15.0796 250.34 14.3836 249.897 13.735C249.636 13.347 249.275 13.0362 248.853 12.835C248.386 12.6669 247.89 12.5902 247.394 12.609H243.894V9.74002H247.385C248.375 9.71252 249.363 9.84765 250.309 10.14C251.094 10.42 251.787 10.9122 252.309 11.562C253.001 12.4625 253.552 13.4625 253.945 14.528L254.702 16.383C254.953 17.0257 255.262 17.6445 255.624 18.232C255.829 18.5774 256.101 18.8783 256.424 19.117C256.809 19.3179 257.235 19.4306 257.669 19.447H258.963L259.512 19.679V22.131L258.938 22.302L240.692 22.305ZM264.477 20.779C263.92 21.3121 263.257 21.7229 262.532 21.9851C261.807 22.2474 261.035 22.3553 260.266 22.302H258.266L257.711 22.07V19.678L258.26 19.446H258.675C260.466 19.446 261.583 19.21 262.026 18.738C262.538 18.0421 262.775 17.1812 262.691 16.321V10.144H266.048V16.333C266.087 17.9553 265.53 19.5356 264.484 20.776L264.477 20.779ZM264.311 8.61402C264.093 8.61726 263.877 8.5762 263.676 8.49334C263.474 8.41049 263.292 8.28756 263.139 8.13202C262.983 7.9837 262.858 7.80462 262.774 7.60602C262.69 7.40743 262.648 7.19362 262.651 6.97802C262.647 6.76116 262.688 6.54587 262.772 6.34559C262.855 6.14532 262.979 5.96436 263.135 5.81402C263.288 5.65848 263.47 5.53556 263.672 5.4527C263.873 5.36984 264.089 5.32879 264.307 5.33202C264.527 5.32803 264.745 5.36869 264.948 5.45154C265.152 5.53439 265.337 5.65771 265.491 5.81402C265.648 5.96425 265.773 6.14537 265.857 6.34603C265.941 6.54668 265.982 6.76253 265.979 6.98002C265.983 7.1972 265.94 7.41271 265.855 7.61256C265.77 7.8124 265.644 7.99211 265.485 8.14002C265.33 8.29288 265.147 8.41351 264.946 8.49488C264.744 8.57625 264.528 8.61675 264.311 8.61402ZM277.832 22.314C275.383 21.8474 274.02 19.9837 273.743 16.723C273.619 15.6114 273.767 14.4862 274.176 13.445C274.555 12.4791 275.201 11.6409 276.038 11.028C276.897 10.4059 277.911 10.0323 278.968 9.94802C280.029 9.82917 281.103 10.0089 282.068 10.467C283.017 10.9383 283.81 11.6738 284.351 12.585C284.96 13.6222 285.185 14.8407 284.986 16.027L284.155 22.314H277.832ZM281.348 19.409L281.748 16.109C281.846 15.6653 281.847 15.2059 281.752 14.7616C281.658 14.3173 281.469 13.8984 281.199 13.533C280.961 13.2566 280.658 13.0438 280.317 12.9138C279.976 12.7837 279.608 12.7405 279.246 12.788C278.757 12.8204 278.292 13.0062 277.915 13.319C277.536 13.657 277.258 14.0945 277.115 14.582C276.934 15.1871 276.882 15.8235 276.962 16.45C276.983 17.3642 277.365 18.2329 278.024 18.867C278.396 19.1399 278.819 19.3346 279.268 19.4395C279.716 19.5443 280.182 19.5571 280.636 19.477L281.348 19.409ZM277.295 8.37402C277.077 8.37726 276.861 8.3362 276.66 8.25334C276.458 8.17049 276.276 8.04756 276.123 7.89202C275.966 7.7437 275.842 7.56462 275.758 7.36602C275.674 7.16743 275.632 6.95362 275.635 6.73802C275.632 6.52053 275.673 6.30468 275.757 6.10403C275.841 5.90337 275.966 5.72225 276.123 5.57202C276.276 5.41648 276.458 5.29355 276.66 5.2107C276.861 5.12784 277.077 5.08679 277.295 5.09002C277.515 5.08603 277.733 5.12669 277.936 5.20954C278.14 5.29239 278.325 5.41571 278.479 5.57202C278.636 5.72225 278.761 5.90337 278.845 6.10403C278.929 6.30468 278.97 6.52053 278.967 6.73802C278.971 6.9552 278.928 7.17071 278.843 7.37056C278.758 7.5704 278.632 7.75011 278.473 7.89802C278.318 8.05173 278.134 8.173 277.932 8.25473C277.73 8.33647 277.513 8.37702 277.295 8.37402ZM281.702 8.37402C281.484 8.37726 281.268 8.3362 281.067 8.25334C280.865 8.17049 280.683 8.04756 280.53 7.89202C280.374 7.7437 280.249 7.56462 280.165 7.36602C280.081 7.16743 280.039 6.95362 280.042 6.73802C280.039 6.52053 280.08 6.30468 280.164 6.10403C280.248 5.90337 280.373 5.72225 280.53 5.57202C280.683 5.41648 280.865 5.29355 281.067 5.2107C281.268 5.12784 281.484 5.08679 281.702 5.09002C281.922 5.08603 282.14 5.12669 282.343 5.20954C282.547 5.29239 282.732 5.41571 282.886 5.57202C283.043 5.72225 283.168 5.90337 283.252 6.10403C283.336 6.30468 283.377 6.52053 283.374 6.73802C283.378 6.9552 283.335 7.17071 283.25 7.37056C283.165 7.5704 283.039 7.75011 282.88 7.89802C282.725 8.05173 282.541 8.173 282.339 8.25473C282.137 8.33647 281.92 8.37702 281.702 8.37402ZM301.819 22.302H288.269V19.446H295.959V16.87C296.059 15.7188 295.746 14.5695 295.074 13.629C294.712 13.2695 294.276 12.9932 293.797 12.8193C293.317 12.6454 292.805 12.578 292.297 12.622H289.27V9.75302H292.261C293.199 9.68081 294.143 9.79692 295.036 10.0945C295.929 10.3921 296.753 10.8652 297.461 11.486C298.082 12.1956 298.556 13.0221 298.853 13.9171C299.151 14.8122 299.267 15.7576 299.194 16.698V19.445H301.819L302.368 19.677V22.07L301.819 22.302ZM307.465 20.776C306.907 21.3105 306.244 21.7224 305.517 21.9852C304.791 22.248 304.018 22.3559 303.247 22.302H301.247L300.698 22.07V19.678L301.247 19.446H301.662C303.453 19.446 304.57 19.21 305.013 18.738C305.525 18.0421 305.762 17.1812 305.678 16.321V10.144H309.035V16.333C309.072 17.9561 308.513 19.5365 307.465 20.776ZM302.857 27.124C302.639 27.1273 302.423 27.0862 302.222 27.0033C302.02 26.9205 301.838 26.7976 301.685 26.642C301.529 26.4937 301.404 26.3146 301.32 26.116C301.236 25.9174 301.194 25.7036 301.197 25.488C301.194 25.2705 301.235 25.0547 301.319 24.854C301.403 24.6534 301.528 24.4722 301.685 24.322C301.838 24.1665 302.02 24.0436 302.222 23.9607C302.423 23.8778 302.639 23.8368 302.857 23.84C303.077 23.836 303.295 23.8767 303.498 23.9595C303.702 24.0424 303.887 24.1657 304.041 24.322C304.198 24.4722 304.323 24.6534 304.407 24.854C304.491 25.0547 304.532 25.2705 304.529 25.488C304.533 25.7052 304.49 25.9207 304.405 26.1206C304.32 26.3204 304.194 26.5001 304.035 26.648C303.88 26.8017 303.696 26.923 303.494 27.0047C303.292 27.0865 303.075 27.127 302.857 27.124ZM307.264 27.124C307.046 27.1273 306.83 27.0862 306.629 27.0033C306.427 26.9205 306.245 26.7976 306.092 26.642C305.936 26.4937 305.811 26.3146 305.727 26.116C305.643 25.9174 305.601 25.7036 305.604 25.488C305.601 25.2705 305.642 25.0547 305.726 24.854C305.81 24.6534 305.935 24.4722 306.092 24.322C306.245 24.1665 306.427 24.0436 306.629 23.9607C306.83 23.8778 307.046 23.8368 307.264 23.84C307.484 23.836 307.702 23.8767 307.905 23.9595C308.109 24.0424 308.294 24.1657 308.448 24.322C308.605 24.4722 308.73 24.6534 308.814 24.854C308.898 25.0547 308.939 25.2705 308.936 25.488C308.94 25.7052 308.897 25.9207 308.812 26.1206C308.727 26.3204 308.601 26.5001 308.442 26.648C308.287 26.8018 308.103 26.9232 307.901 27.0049C307.698 27.0867 307.481 27.1272 307.263 27.124H307.264ZM325.427 22.302H311.877V19.446H319.567V16.87C319.667 15.7188 319.354 14.5695 318.682 13.629C318.32 13.2695 317.884 12.9932 317.405 12.8193C316.925 12.6454 316.413 12.578 315.905 12.622H312.878V9.75302H315.869C316.807 9.68081 317.751 9.79692 318.644 10.0945C319.537 10.3921 320.361 10.8652 321.069 11.486C321.69 12.1956 322.164 13.0221 322.461 13.9171C322.759 14.8122 322.875 15.7576 322.802 16.698V19.445H325.427L325.976 19.677V22.07L325.427 22.302ZM324.792 22.302L324.902 19.446H337.611V20.446C337.247 20.1059 336.93 19.7177 336.671 19.292C336.371 18.7546 336.106 18.1981 335.878 17.626L335.097 15.807C334.809 15.0766 334.44 14.3806 333.997 13.732C333.732 13.3432 333.367 13.0325 332.941 12.832C332.47 12.6604 331.971 12.5816 331.47 12.6H327.991V9.74402H331.47C332.462 9.71691 333.452 9.85202 334.4 10.144C335.186 10.4236 335.878 10.9159 336.4 11.566C337.092 12.4665 337.643 13.4665 338.036 14.532L338.793 16.387C339.044 17.0297 339.353 17.6485 339.715 18.236C339.909 18.5674 340.164 18.8594 340.466 19.097C341.033 19.2985 341.637 19.3736 342.236 19.317L341.011 22.302H324.788H324.792ZM331.774 27.112C331.556 27.1153 331.34 27.0742 331.139 26.9913C330.937 26.9085 330.755 26.7856 330.602 26.63C330.445 26.482 330.32 26.303 330.236 26.1044C330.151 25.9058 330.109 25.6918 330.111 25.476C330.108 25.2585 330.149 25.0427 330.233 24.842C330.317 24.6414 330.442 24.4602 330.599 24.31C330.752 24.1545 330.934 24.0316 331.136 23.9487C331.337 23.8658 331.553 23.8248 331.771 23.828C331.991 23.824 332.209 23.8647 332.412 23.9475C332.616 24.0304 332.801 24.1537 332.955 24.31C333.112 24.4602 333.237 24.6414 333.321 24.842C333.405 25.0427 333.446 25.2585 333.443 25.476C333.447 25.6932 333.404 25.9087 333.319 26.1086C333.234 26.3084 333.108 26.4881 332.949 26.636C332.795 26.7896 332.612 26.911 332.41 26.993C332.208 27.0751 331.993 27.1162 331.775 27.114L331.774 27.112ZM355.411 22.302C354.639 22.357 353.865 22.2496 353.137 21.9868C352.41 21.7239 351.745 21.3115 351.187 20.776C350.147 19.529 349.631 17.9276 349.747 16.308L349.686 8.59302V3.71402H353.031V8.59702L352.982 16.312C352.897 17.1751 353.131 18.0393 353.641 18.741C353.929 19.0004 354.267 19.1972 354.635 19.319C355.002 19.4409 355.391 19.4852 355.777 19.449H356.314L356.985 19.693V22.058L356.314 22.302H355.411ZM365.03 19.446L365.75 16.199C365.888 15.7658 365.932 15.3079 365.878 14.8563C365.825 14.4047 365.675 13.9698 365.439 13.581C365.227 13.2841 364.945 13.0444 364.618 12.8835C364.291 12.7225 363.929 12.6454 363.565 12.659C363.079 12.648 362.601 12.7877 362.198 13.059C361.785 13.3551 361.467 13.7642 361.282 14.237C361.05 14.821 360.937 15.4457 360.952 16.074C360.918 16.5282 360.974 16.9845 361.116 17.4171C361.259 17.8497 361.485 18.2499 361.782 18.595C362.126 18.9003 362.528 19.1328 362.965 19.2786C363.401 19.4243 363.862 19.4802 364.321 19.443L365.03 19.446ZM358.743 19.446C358.034 18.4638 357.672 17.2745 357.711 16.064C357.692 14.9411 357.948 13.8305 358.456 12.829C358.925 11.9063 359.644 11.1342 360.531 10.601C361.443 10.0611 362.486 9.78421 363.546 9.80102C364.614 9.78198 365.666 10.0589 366.586 10.601C367.492 11.1547 368.214 11.9635 368.661 12.926C369.165 14.019 369.273 15.2532 368.966 16.417L367.59 22.302H355.611L355.062 22.07V19.678L355.611 19.446H358.743ZM361.612 8.27702C361.394 8.28026 361.178 8.2392 360.977 8.15634C360.775 8.07349 360.593 7.95056 360.44 7.79502C360.284 7.6467 360.159 7.46762 360.075 7.26902C359.991 7.07043 359.949 6.85662 359.952 6.64102C359.949 6.42353 359.99 6.20768 360.074 6.00703C360.158 5.80637 360.283 5.62525 360.44 5.47502C360.593 5.31948 360.775 5.19655 360.977 5.1137C361.178 5.03084 361.394 4.98979 361.612 4.99302C361.832 4.98903 362.05 5.02969 362.253 5.11254C362.457 5.19539 362.642 5.31871 362.796 5.47502C362.953 5.62525 363.078 5.80637 363.162 6.00703C363.246 6.20768 363.287 6.42353 363.284 6.64102C363.288 6.8582 363.245 7.07371 363.16 7.27356C363.075 7.4734 362.949 7.65311 362.79 7.80102C362.635 7.95467 362.451 8.07582 362.248 8.15739C362.046 8.23895 361.829 8.27929 361.611 8.27602L361.612 8.27702ZM366.019 8.27702C365.801 8.28026 365.585 8.2392 365.384 8.15634C365.182 8.07349 365 7.95056 364.847 7.79502C364.69 7.6467 364.566 7.46762 364.482 7.26902C364.398 7.07043 364.356 6.85662 364.359 6.64102C364.356 6.42353 364.397 6.20768 364.481 6.00703C364.565 5.80637 364.69 5.62525 364.847 5.47502C365 5.31948 365.182 5.19655 365.384 5.1137C365.585 5.03084 365.801 4.98979 366.019 4.99302C366.239 4.98903 366.457 5.02969 366.66 5.11254C366.864 5.19539 367.049 5.31871 367.203 5.47502C367.36 5.62525 367.485 5.80637 367.569 6.00703C367.653 6.20768 367.694 6.42353 367.691 6.64102C367.695 6.8582 367.652 7.07371 367.567 7.27356C367.482 7.4734 367.356 7.65311 367.197 7.80102C367.041 7.95552 366.856 8.07717 366.652 8.15876C366.448 8.24035 366.23 8.28023 366.011 8.27602L366.019 8.27702ZM378.319 22.303C377.547 22.358 376.773 22.2506 376.045 21.9878C375.318 21.7249 374.653 21.3125 374.095 20.777C373.055 19.53 372.539 17.9286 372.655 16.309L372.594 8.59402V3.71402H375.939V8.59702L375.89 16.312C375.805 17.1751 376.039 18.0393 376.549 18.741C376.837 19.0004 377.175 19.1972 377.543 19.319C377.91 19.4409 378.299 19.4852 378.685 19.449H379.222L379.893 19.693V22.058L379.222 22.302L378.319 22.303ZM387.938 19.447L388.658 16.2C388.796 15.7668 388.84 15.3089 388.786 14.8573C388.733 14.4057 388.583 13.9708 388.347 13.582C388.135 13.2851 387.854 13.0454 387.526 12.8845C387.199 12.7235 386.837 12.6464 386.473 12.66C385.987 12.649 385.509 12.7887 385.106 13.06C384.693 13.3561 384.375 13.7652 384.19 14.238C383.958 14.8219 383.845 15.4467 383.86 16.075C383.826 16.5292 383.882 16.9855 384.024 17.4181C384.167 17.8507 384.393 18.2509 384.69 18.596C385.034 18.9013 385.436 19.1338 385.873 19.2796C386.309 19.4253 386.77 19.4812 387.229 19.444L387.938 19.447ZM381.651 19.447C380.945 18.4642 380.585 17.2753 380.626 16.066C380.607 14.9431 380.863 13.8325 381.371 12.831C381.84 11.9083 382.559 11.1362 383.446 10.603C384.358 10.0631 385.401 9.78621 386.461 9.80302C387.529 9.78398 388.581 10.0609 389.501 10.603C390.407 11.1567 391.128 11.9655 391.576 12.928C392.08 14.021 392.188 15.2552 391.881 16.419L390.503 22.302H378.528L377.979 22.07V19.678L378.528 19.446L381.651 19.447ZM386.79 8.27802C386.572 8.28126 386.356 8.2402 386.155 8.15734C385.953 8.07449 385.771 7.95156 385.618 7.79602C385.462 7.6477 385.337 7.46862 385.253 7.27003C385.169 7.07143 385.127 6.85762 385.13 6.64202C385.127 6.42453 385.168 6.20868 385.252 6.00803C385.336 5.80737 385.461 5.62625 385.618 5.47602C385.771 5.32048 385.953 5.19756 386.155 5.1147C386.356 5.03184 386.572 4.99079 386.79 4.99402C387.01 4.99003 387.228 5.03069 387.431 5.11354C387.635 5.1964 387.82 5.31971 387.974 5.47602C388.131 5.62625 388.256 5.80737 388.34 6.00803C388.424 6.20868 388.465 6.42453 388.462 6.64202C388.466 6.8592 388.423 7.07471 388.338 7.27456C388.253 7.4744 388.127 7.65411 387.968 7.80202C387.813 7.95513 387.63 8.07589 387.428 8.15727C387.226 8.23865 387.01 8.27902 386.792 8.27602L386.79 8.27802ZM395.738 3.71302H398.924V8.74202L398.948 22.304H395.711L395.735 8.74202L395.738 3.71302ZM398.961 1.83302C398.703 1.83458 398.446 1.81417 398.192 1.77202C397.956 1.73136 397.659 1.67036 397.301 1.58902C396.943 1.50769 396.628 1.44102 396.355 1.38902C396.062 1.34276 395.766 1.32035 395.47 1.32202C394.911 1.3245 394.357 1.42782 393.834 1.62702V0.296022C394.325 0.107797 394.846 0.00857961 395.372 0.00302124C395.689 -0.000696037 396.005 0.0217146 396.318 0.0700226C396.585 0.114689 396.924 0.181355 397.337 0.270021C397.687 0.351355 397.976 0.412355 398.204 0.453022C398.454 0.495539 398.707 0.515952 398.961 0.514023C399.291 0.513638 399.621 0.480137 399.944 0.414022C400.294 0.340741 400.639 0.24283 400.975 0.121021V1.45202C400.637 1.56444 400.293 1.65825 399.944 1.73302C399.621 1.79913 399.293 1.83197 398.963 1.83102L398.961 1.83302ZM418.591 30.554H414.099C412.843 30.4025 411.641 29.9572 410.589 29.254C409.626 28.6056 408.867 27.6979 408.398 26.636C408.055 25.8509 407.881 25.0027 407.885 24.146C407.885 23.8277 407.905 23.5097 407.946 23.194C408.033 22.1951 408.387 21.238 408.971 20.423C409.309 20.0687 409.723 19.7965 410.182 19.6271C410.641 19.4578 411.133 19.3958 411.62 19.446H418.72V20.446C418.356 20.107 418.042 19.7185 417.786 19.292C417.488 18.7524 417.221 18.1961 416.986 17.626L416.211 15.808C415.928 15.0744 415.562 14.376 415.118 13.727C414.857 13.3386 414.497 13.0276 414.074 12.827C413.753 12.7125 413.414 12.6586 413.074 12.668H409.111V9.73802H412.602C413.594 9.71091 414.584 9.84602 415.532 10.138C416.318 10.4158 417.011 10.9084 417.532 11.56C418.222 12.463 418.775 13.4623 419.174 14.526L419.931 16.381C420.176 17.0256 420.483 17.6448 420.847 18.23C421.054 18.5736 421.326 18.8741 421.647 19.115C422.034 19.3175 422.462 19.4303 422.898 19.445H424.18L424.729 19.677V22.131L424.167 22.302H412.329C411.694 22.318 411.312 22.7574 411.182 23.62C411.15 23.8261 411.133 24.0344 411.133 24.243C411.139 24.737 411.245 25.2247 411.444 25.677C411.694 26.2194 412.095 26.6789 412.598 27.001C413.223 27.4149 413.939 27.6706 414.685 27.746C414.859 27.7644 415.035 27.7724 415.21 27.77H420.154L418.591 30.554ZM433.521 19.727V22.07L432.972 22.302H432.011C431.128 22.2862 430.266 22.0263 429.521 21.551C428.662 21.0156 427.998 20.217 427.629 19.274H428.545C428.271 20.1773 427.718 20.9704 426.965 21.539C426.039 22.1061 424.96 22.3726 423.877 22.302H423.477L422.928 22.07V19.678L423.477 19.446H423.877C424.247 19.4733 424.618 19.4228 424.967 19.2978C425.316 19.1727 425.635 18.9759 425.903 18.72C426.152 18.4033 426.333 18.0391 426.436 17.6499C426.54 17.2606 426.562 16.8544 426.503 16.456V11.366H429.945V16.456C429.886 16.8544 429.908 17.2606 430.012 17.6499C430.115 18.0391 430.296 18.4033 430.545 18.72C430.813 18.9759 431.132 19.1727 431.481 19.2978C431.83 19.4228 432.201 19.4733 432.571 19.446H432.986L433.521 19.727ZM426.233 9.47302C426.015 9.47626 425.799 9.4352 425.598 9.35234C425.396 9.26949 425.214 9.14656 425.061 8.99102C424.905 8.8427 424.78 8.66362 424.696 8.46502C424.612 8.26643 424.57 8.05262 424.573 7.83702C424.57 7.61953 424.611 7.40368 424.695 7.20303C424.779 7.00237 424.904 6.82125 425.061 6.67102C425.214 6.51548 425.396 6.39256 425.598 6.3097C425.799 6.22684 426.015 6.18579 426.233 6.18902C426.453 6.18503 426.671 6.22569 426.874 6.30854C427.078 6.39139 427.263 6.51471 427.417 6.67102C427.574 6.82125 427.699 7.00237 427.783 7.20303C427.867 7.40368 427.908 7.61953 427.905 7.83702C427.909 8.0542 427.866 8.26971 427.781 8.46956C427.696 8.6694 427.57 8.84911 427.411 8.99702C427.256 9.15073 427.072 9.272 426.87 9.35373C426.668 9.43547 426.451 9.47602 426.233 9.47302ZM430.64 9.47302C430.422 9.47626 430.206 9.4352 430.005 9.35234C429.803 9.26949 429.621 9.14656 429.468 8.99102C429.312 8.8427 429.187 8.66362 429.103 8.46502C429.019 8.26643 428.977 8.05262 428.98 7.83702C428.977 7.61953 429.018 7.40368 429.102 7.20303C429.186 7.00237 429.311 6.82125 429.468 6.67102C429.621 6.51548 429.803 6.39256 430.005 6.3097C430.206 6.22684 430.422 6.18579 430.64 6.18902C430.86 6.18503 431.078 6.22569 431.281 6.30854C431.485 6.39139 431.67 6.51471 431.824 6.67102C431.981 6.82125 432.106 7.00237 432.19 7.20303C432.274 7.40368 432.315 7.61953 432.312 7.83702C432.316 8.0542 432.273 8.26971 432.188 8.46956C432.103 8.6694 431.977 8.84911 431.818 8.99702C431.663 9.15073 431.479 9.272 431.277 9.35373C431.075 9.43547 430.858 9.47602 430.64 9.47302ZM441.74 19.446L442.46 16.199C442.598 15.7658 442.642 15.3079 442.589 14.8563C442.535 14.4047 442.385 13.9698 442.149 13.581C441.937 13.2841 441.656 13.0444 441.328 12.8835C441.001 12.7225 440.639 12.6454 440.275 12.659C439.789 12.648 439.311 12.7877 438.908 13.059C438.495 13.3551 438.177 13.7642 437.992 14.237C437.76 14.821 437.647 15.4457 437.662 16.074C437.628 16.5282 437.684 16.9845 437.826 17.4171C437.969 17.8497 438.195 18.2499 438.492 18.595C438.836 18.9003 439.238 19.1328 439.675 19.2786C440.111 19.4243 440.572 19.4802 441.031 19.443L441.74 19.446ZM435.453 19.446C434.746 18.4634 434.384 17.2741 434.424 16.064C434.405 14.9411 434.661 13.8305 435.169 12.829C435.638 11.9063 436.357 11.1342 437.244 10.601C438.156 10.0611 439.199 9.78421 440.259 9.80102C441.327 9.78198 442.379 10.0589 443.299 10.601C444.205 11.1547 444.926 11.9635 445.374 12.926C445.878 14.0148 445.985 15.2452 445.679 16.405L444.995 19.445H448.595L449.144 19.677V22.07L448.595 22.302H432.324L431.775 22.07V19.678L432.324 19.446H435.453ZM440.629 8.27702C440.411 8.28026 440.195 8.2392 439.994 8.15634C439.792 8.07349 439.61 7.95056 439.457 7.79502C439.301 7.6467 439.176 7.46762 439.092 7.26902C439.008 7.07043 438.966 6.85662 438.969 6.64102C438.966 6.42353 439.007 6.20768 439.091 6.00703C439.175 5.80637 439.3 5.62525 439.457 5.47502C439.61 5.31948 439.792 5.19655 439.994 5.1137C440.195 5.03084 440.411 4.98979 440.629 4.99302C440.849 4.98903 441.067 5.02969 441.27 5.11254C441.474 5.19539 441.659 5.31871 441.813 5.47502C441.97 5.62525 442.095 5.80637 442.179 6.00703C442.263 6.20768 442.304 6.42353 442.301 6.64102C442.305 6.8582 442.262 7.07371 442.177 7.27356C442.092 7.4734 441.966 7.65311 441.807 7.80102C441.652 7.95503 441.467 8.0764 441.264 8.15798C441.061 8.23955 440.844 8.27969 440.625 8.27602L440.629 8.27702ZM454.16 20.777C453.602 21.3117 452.938 21.7236 452.211 21.9863C451.484 22.2489 450.71 22.3565 449.939 22.302H447.939L447.39 22.07V19.678L447.939 19.446H448.354C450.145 19.446 451.262 19.21 451.705 18.738C452.217 18.0421 452.454 17.1812 452.37 16.321V10.144H455.727V16.333C455.764 17.9561 455.205 19.5365 454.157 20.776L454.16 20.777ZM453.98 8.61402C453.762 8.61726 453.546 8.5762 453.345 8.49334C453.143 8.41049 452.961 8.28756 452.808 8.13202C452.652 7.9837 452.527 7.80462 452.443 7.60602C452.359 7.40743 452.317 7.19362 452.32 6.97802C452.317 6.76065 452.359 6.54505 452.444 6.34474C452.528 6.14444 452.653 5.96376 452.811 5.81402C452.964 5.65848 453.146 5.53556 453.348 5.4527C453.549 5.36984 453.765 5.32879 453.983 5.33202C454.202 5.32843 454.42 5.36929 454.623 5.45214C454.826 5.53498 455.01 5.65808 455.164 5.81402C455.321 5.96425 455.446 6.14537 455.53 6.34603C455.614 6.54668 455.655 6.76253 455.652 6.98002C455.656 7.1972 455.613 7.41271 455.528 7.61256C455.443 7.8124 455.317 7.99211 455.158 8.14002C455.003 8.29337 454.819 8.41427 454.617 8.49566C454.414 8.57704 454.198 8.61728 453.98 8.61402ZM469.922 22.302C469.15 22.357 468.376 22.2496 467.648 21.9868C466.921 21.7239 466.256 21.3115 465.698 20.776C464.658 19.529 464.142 17.9276 464.258 16.308L464.197 8.59302V3.71402H467.542V8.59702L467.493 16.312C467.408 17.1751 467.642 18.0393 468.152 18.741C468.44 19.0004 468.778 19.1972 469.146 19.319C469.513 19.4409 469.902 19.4852 470.288 19.449H470.825L471.496 19.693V22.058L470.825 22.302H469.922ZM473.071 19.446C472.835 19.0307 472.709 18.8027 472.693 18.762C472.168 17.7809 471.883 16.6888 471.863 15.576C471.846 14.3971 472.158 13.2367 472.763 12.225C473.364 11.2342 474.233 10.4332 475.269 9.91402C476.401 9.34723 477.653 9.06248 478.919 9.08402C480.008 9.11706 481.09 9.2768 482.142 9.56002L481.776 12.905C480.935 12.5659 480.044 12.3633 479.139 12.305C478.41 12.2829 477.684 12.4052 477.003 12.665C476.445 12.896 475.966 13.284 475.624 13.782C475.267 14.3109 475.083 14.938 475.099 15.576C475.115 16.3399 475.381 17.0774 475.856 17.676C476.39 18.3788 477.152 18.8732 478.011 19.074C479.077 19.3375 480.172 19.4625 481.27 19.446H484.883L485.664 19.702V22.046L484.883 22.302H470.13L469.471 22.082V19.666L470.13 19.446H473.071ZM490.601 14.221L490.442 14.905C490.305 15.3444 490.257 15.807 490.302 16.2651C490.347 16.7233 490.484 17.1678 490.704 17.572C490.973 17.9409 491.313 18.2524 491.704 18.4881C492.095 18.7239 492.529 18.8792 492.981 18.945C493.588 19.0966 494.219 19.1235 494.836 19.024C495.336 18.9473 495.805 18.7291 496.185 18.395C496.54 18.0609 496.784 17.6266 496.885 17.15C496.986 16.7984 496.995 16.4268 496.912 16.0705C496.829 15.7143 496.657 15.385 496.411 15.114C496.082 14.7993 495.69 14.5577 495.261 14.4052C494.832 14.2527 494.375 14.1927 493.921 14.229L490.601 14.221ZM488.355 11.096L494.422 11.047C495.623 11.0007 496.803 11.3784 497.754 12.114C498.592 12.7677 499.221 13.6504 499.567 14.655C499.897 15.6722 499.931 16.762 499.667 17.798C499.453 18.8327 498.953 19.7866 498.224 20.551C497.504 21.2958 496.591 21.8261 495.587 22.083C494.5 22.36 493.362 22.3641 492.273 22.095C490.95 21.7404 489.777 20.969 488.928 19.895C488.617 20.7068 488.057 21.3993 487.328 21.873C486.714 22.1604 486.041 22.3024 485.363 22.288H484.155L483.711 22.07V19.446H484.517C485.283 19.4513 486.021 19.1529 486.568 18.616C486.905 18.2334 487.5 15.7267 488.355 11.096Z" fill="url(#paint0_linear_210_25)"/></g><defs><linearGradient id="paint0_linear_210_25" x1="626.307" y1="8.80143" x2="600.685" y2="138.947" gradientUnits="userSpaceOnUse"><stop stop-color="#0D34FB"/><stop offset="1" stop-color="white"/></linearGradient><clipPath id="clip0_210_25"><rect width="499.843" height="30.554" fill="white"/></clipPath></defs><style> @keyframes sideClip { 0% { clip-path: polygon(100% 0, 100% 0, 100% 100%, 100% 100%); } 50% { clip-path: polygon(100% 0, 50% 0, 50% 100%, 100% 100%); } 80%, 100% { clip-path: polygon(100% 0, 0 0, 0 100%, 100% 100%); } }</style></svg>