<svg xmlns="http://www.w3.org/2000/svg" xmlns:xlink="http://www.w3.org/1999/xlink" width="80" height="80" viewBox="0 0 80 80">
  <defs>
    <clipPath id="clip-path">
      <path id="path3218" d="M0-682.665H80v80H0Z" transform="translate(0 682.665)" fill="#fff"/>
    </clipPath>
  </defs>
  <g id="g3192" transform="translate(0 682.665)">
    <path id="Union_3" data-name="Union 3" d="M-1125.806-2921.108l-4.288-4.288a2.4,2.4,0,0,1-.5-.386,2.391,2.391,0,0,1-.7-1.754,2.391,2.391,0,0,1,.7-1.753,2.4,2.4,0,0,1,.5-.386l4.289-4.288a2.4,2.4,0,0,1,3.388,0,2.4,2.4,0,0,1,0,3.388l-3.039,3.039,3.039,3.039a2.4,2.4,0,0,1,0,3.389,2.387,2.387,0,0,1-1.695.7A2.387,2.387,0,0,1-1125.806-2921.108Z" transform="translate(1154.824 2282.534)" fill="#fff" opacity="0.4"/>
    <path id="Union_2" data-name="Union 2" d="M-1130.6-2921.108a2.4,2.4,0,0,1,0-3.389l3.039-3.039-3.039-3.039a2.4,2.4,0,0,1,0-3.388,2.4,2.4,0,0,1,3.388,0l4.289,4.288a2.4,2.4,0,0,1,.5.386,2.389,2.389,0,0,1,.7,1.753,2.389,2.389,0,0,1-.7,1.754,2.4,2.4,0,0,1-.5.386l-4.288,4.288a2.387,2.387,0,0,1-1.694.7A2.387,2.387,0,0,1-1130.6-2921.108Z" transform="translate(1178.192 2282.534)" fill="#fff" opacity="0.4"/>
    <g id="g3210" transform="translate(35.207 -656.968)" opacity="0.4">
      <path id="path3212" d="M-57.606,3.957a2.4,2.4,0,0,1-.583-.072A2.4,2.4,0,0,1-59.932.979l4.792-19.169a2.4,2.4,0,0,1,2.906-1.743,2.4,2.4,0,0,1,1.743,2.906L-55.283,2.142A2.4,2.4,0,0,1-57.606,3.957Z" transform="translate(60.005 20.005)" fill="#fff"/>
    </g>
    <g id="g3214" transform="translate(0 -682.665)">
      <g id="g3216" clip-path="url(#clip-path)">
        <g id="g3222" transform="translate(14.219 0)">
          <path id="path3224" d="M-375.468-542.665h-37.5A7.039,7.039,0,0,1-420-549.7v-65.937a7.039,7.039,0,0,1,7.031-7.031h37.5a7.039,7.039,0,0,1,7.031,7.031V-549.7A7.039,7.039,0,0,1-375.468-542.665Zm-37.5-75.312a2.346,2.346,0,0,0-2.344,2.344V-549.7a2.346,2.346,0,0,0,2.344,2.344h37.5a2.346,2.346,0,0,0,2.344-2.344v-65.937a2.346,2.346,0,0,0-2.344-2.344Z" transform="translate(419.999 622.665)" fill="#fff"/>
        </g>
        <g id="g3226" transform="translate(32.969 65.937)">
          <path id="path3228" d="M-8.281-15.312h-9.375A2.344,2.344,0,0,1-20-17.656,2.344,2.344,0,0,1-17.656-20h9.375a2.344,2.344,0,0,1,2.344,2.344A2.344,2.344,0,0,1-8.281-15.312Z" transform="translate(20 20)" fill="#fff"/>
        </g>
        <g id="g3230" transform="translate(37.656 9.375)">
          <path id="path3232" d="M-35.312-17.656a2.344,2.344,0,0,1-2.344,2.344A2.344,2.344,0,0,1-40-17.656,2.344,2.344,0,0,1-37.656-20a2.344,2.344,0,0,1,2.344,2.344" transform="translate(40 20)" fill="#fff"/>
        </g>
      </g>
    </g>
  </g>
</svg>
