<svg id="vector" xmlns="http://www.w3.org/2000/svg" width="80" height="80" viewBox="0 0 80 80">
  <g id="Group_28" data-name="Group 28">
    <g id="Group_27" data-name="Group 27">
      <path id="Path_32" data-name="Path 32" d="M77.656,0H68.281a2.357,2.357,0,0,0-2.344,2.37V4.74H46.628a7,7,0,0,0-13.256,0H14.063V2.37A2.357,2.357,0,0,0,11.719,0H2.344A2.357,2.357,0,0,0,0,2.37v9.48a2.357,2.357,0,0,0,2.344,2.37h9.375a2.357,2.357,0,0,0,2.344-2.37v-2.4h9.746A31.2,31.2,0,0,0,9.6,33.723a7.12,7.12,0,0,0,2.28,13.834A7.122,7.122,0,0,0,14.292,33.77a26.386,26.386,0,0,1,19.41-23.5,6.993,6.993,0,0,0,12.6,0,26.385,26.385,0,0,1,19.41,23.5,7.034,7.034,0,1,0,4.7-.047A31.142,31.142,0,0,0,56.191,9.48h9.746v2.37a2.357,2.357,0,0,0,2.344,2.37h9.375A2.357,2.357,0,0,0,80,11.85V2.37A2.357,2.357,0,0,0,77.656,0ZM9.375,9.48H4.688V4.74H9.375Zm2.5,33.337a2.37,2.37,0,1,1,2.344-2.37A2.36,2.36,0,0,1,11.875,42.817ZM40,9.48a2.37,2.37,0,1,1,2.344-2.37A2.36,2.36,0,0,1,40,9.48Zm28.125,28.6a2.37,2.37,0,1,1-2.344,2.37A2.36,2.36,0,0,1,68.125,38.077Zm7.187-28.6H70.625V4.74h4.688Z" fill="#fff" opacity="0.4"/>
    </g>
  </g>
  <g id="Group_30" data-name="Group 30" transform="translate(18.671 18.225)">
    <g id="Group_29" data-name="Group 29">
      <path id="Path_33" data-name="Path 33" d="M163.261,150.5,144.3,122.064l0,0-.021-.03c-.033-.047-.067-.093-.1-.137a2.37,2.37,0,0,0-3.795.137l-.021.03,0,0L121.4,150.5a2.37,2.37,0,0,0,.3,2.99,30.025,30.025,0,0,1,8.558,17.522,12.217,12.217,0,0,0-1.06.961,12.012,12.012,0,0,0-3.452,8.439,2.37,2.37,0,0,0,2.37,2.37h28.439a2.37,2.37,0,0,0,2.37-2.37,12.014,12.014,0,0,0-3.452-8.439,12.219,12.219,0,0,0-1.06-.961,30.021,30.021,0,0,1,8.558-17.522A2.37,2.37,0,0,0,163.261,150.5Zm-20.931-1.055a2.37,2.37,0,1,1-2.37,2.37A2.373,2.373,0,0,1,142.33,149.448Zm-11.446,28.6a7.239,7.239,0,0,1,6.706-4.9h9.48a7.239,7.239,0,0,1,6.706,4.9Zm19.068-9.277a11.642,11.642,0,0,0-2.883-.361h-9.48a11.635,11.635,0,0,0-2.883.361,34.777,34.777,0,0,0-8.319-17.206l13.571-20.357v13.91a7.11,7.11,0,1,0,4.74,0v-13.91l13.571,20.357A34.771,34.771,0,0,0,149.952,168.768Z" transform="translate(-121 -121.01)" fill="#fff"/>
    </g>
  </g>
</svg>
