<svg xmlns="http://www.w3.org/2000/svg" width="105.025" height="80" viewBox="0 0 105.025 80">
  <g id="project" transform="translate(0 -61)">
    <path id="Path_34" data-name="Path 34" d="M105.025,82.529a3.1,3.1,0,0,0-.9-2.167L85.663,61.9a3.1,3.1,0,0,0-2.177-.9H33.846a3.077,3.077,0,0,0-3.077,3.077v4.358a33.421,33.421,0,0,0-7.254,3.026l-3.1-3.1a3.077,3.077,0,0,0-4.351,0l-8.7,8.7a3.078,3.078,0,0,0,0,4.351l3.1,3.1a33.45,33.45,0,0,0-3.026,7.255H3.077A3.077,3.077,0,0,0,0,94.846v12.308a3.077,3.077,0,0,0,3.077,3.077H7.435a33.427,33.427,0,0,0,3.026,7.254l-3.1,3.1a3.078,3.078,0,0,0,0,4.351l8.7,8.7a3.077,3.077,0,0,0,4.351,0l3.1-3.1a33.425,33.425,0,0,0,7.255,3.026v4.358A3.077,3.077,0,0,0,33.846,141h68.1a3.077,3.077,0,0,0,3.077-3.077V82.538s0-.006,0-.009ZM86.564,71.505l7.956,7.956H86.564ZM43.077,101A3.077,3.077,0,1,1,40,97.923,3.08,3.08,0,0,1,43.077,101Zm0-8.7a9.231,9.231,0,1,0,0,17.4v6.374a15.385,15.385,0,1,1,0-30.15Zm-8.619,35.835a27.4,27.4,0,0,1-9.709-4.047,3.077,3.077,0,0,0-3.874.39l-2.632,2.632-4.352-4.351,2.632-2.632a3.077,3.077,0,0,0,.39-3.874,27.4,27.4,0,0,1-4.047-9.709,3.077,3.077,0,0,0-3.015-2.465h-3.7V97.923h3.7a3.077,3.077,0,0,0,3.015-2.465,27.4,27.4,0,0,1,4.047-9.709,3.077,3.077,0,0,0-.39-3.874l-2.632-2.632,4.351-4.351,2.632,2.632a3.077,3.077,0,0,0,3.874.39,27.4,27.4,0,0,1,9.709-4.047,3.077,3.077,0,0,0,2.465-3.015v-3.7h6.154v12.53a21.538,21.538,0,1,0,0,42.631v12.53H36.923v-3.7a3.077,3.077,0,0,0-2.465-3.016Zm64.414,6.713H49.231V67.154H80.41V82.538a3.077,3.077,0,0,0,3.077,3.077H98.872Z" fill="#fff"/>
    <path id="Path_35" data-name="Path 35" d="M272.883,156.767H284.8a2.883,2.883,0,1,0,0-5.767H272.883a2.883,2.883,0,0,0,0,5.767Z" transform="translate(-213.853 -71.442)" fill="#fff" opacity="0.4"/>
    <path id="Path_36" data-name="Path 36" d="M270,213.883a2.884,2.884,0,0,0,2.883,2.883H302.1a2.883,2.883,0,0,0,0-5.767H272.883A2.884,2.884,0,0,0,270,213.883Z" transform="translate(-213.853 -119.07)" fill="#fff" opacity="0.4"/>
    <path id="Path_37" data-name="Path 37" d="M302.1,271H272.883a2.883,2.883,0,0,0,0,5.767H302.1a2.883,2.883,0,0,0,0-5.767Z" transform="translate(-213.853 -166.697)" fill="#fff" opacity="0.4"/>
    <path id="Path_38" data-name="Path 38" d="M302.1,331H272.883a2.883,2.883,0,0,0,0,5.767H302.1a2.883,2.883,0,0,0,0-5.767Z" transform="translate(-213.853 -214.325)" fill="#fff" opacity="0.4"/>
  </g>
</svg>
