<svg id="g585" xmlns="http://www.w3.org/2000/svg" xmlns:xlink="http://www.w3.org/1999/xlink" width="80" height="80" viewBox="0 0 80 80">
  <defs>
    <clipPath id="clip-path">
      <path id="path591" d="M80-682.665H0v80H80Z" transform="translate(0 682.665)" fill="#fff"/>
    </clipPath>
  </defs>
  <g id="g587" transform="translate(0 0)">
    <g id="g589" clip-path="url(#clip-path)">
      <g id="g595" transform="translate(0 9.375)">
        <path id="path597" d="M-580.322,36.25h75.313a2.344,2.344,0,0,0,2.344-2.344V-17.656A2.344,2.344,0,0,0-505.009-20h-9.375a2.344,2.344,0,0,0-2.344,2.344,2.344,2.344,0,0,0,2.344,2.344h7.031V31.563h-70.625V-15.312h7.031a2.344,2.344,0,0,0,2.344-2.344A2.344,2.344,0,0,0-570.947-20h-9.375a2.344,2.344,0,0,0-2.344,2.344V33.906A2.344,2.344,0,0,0-580.322,36.25Z" transform="translate(582.665 20)" fill="#fff"/>
      </g>
      <g id="g599" transform="translate(47.031 60.938)">
        <path id="path601" d="M-17.656-123.6a2.344,2.344,0,0,0,2.344-2.344v-14.375a2.344,2.344,0,0,0-2.344-2.344A2.344,2.344,0,0,0-20-140.323v14.375A2.344,2.344,0,0,0-17.656-123.6Z" transform="translate(20 142.666)" fill="#fff"/>
      </g>
      <g id="g603" transform="translate(28.281 60.938)">
        <path id="path605" d="M-17.656-.937a2.344,2.344,0,0,0,2.344-2.344V-17.656A2.344,2.344,0,0,0-17.656-20,2.344,2.344,0,0,0-20-17.656V-3.281A2.344,2.344,0,0,0-17.656-.937Z" transform="translate(20 20)" fill="#fff"/>
      </g>
      <g id="g607" transform="translate(18.906 75.313)">
        <path id="path609" d="M-17.656-15.312h37.5a2.344,2.344,0,0,0,2.344-2.344A2.344,2.344,0,0,0,19.844-20h-37.5A2.344,2.344,0,0,0-20-17.656,2.344,2.344,0,0,0-17.656-15.312Z" transform="translate(20 20)" fill="#fff"/>
      </g>
      <path id="path611" d="M82.344-626.415h56.563a2.344,2.344,0,0,0,2.344-2.344v-51.563a2.344,2.344,0,0,0-2.344-2.344H82.344A2.344,2.344,0,0,0,80-680.321v51.563A2.344,2.344,0,0,0,82.344-626.415Zm54.219-4.688H84.687v-46.875h51.875Z" transform="translate(-70.625 682.665)" fill="#fff"/>
    </g>
  </g>
  <g id="g617" transform="translate(0 0)">
    <g id="g619" clip-path="url(#clip-path)">
      <g id="g625" transform="translate(56.406 9.375)" opacity="0.4">
        <path id="path627" d="M-40-17.656a2.344,2.344,0,0,0,2.344,2.344,2.344,2.344,0,0,0,2.344-2.344A2.344,2.344,0,0,0-37.656-20,2.344,2.344,0,0,0-40-17.656" transform="translate(40 20)" fill="#fff"/>
      </g>
      <g id="g629" transform="translate(47.031 9.375)" opacity="0.4">
        <path id="path631" d="M-40-17.656a2.344,2.344,0,0,0,2.344,2.344,2.344,2.344,0,0,0,2.344-2.344A2.344,2.344,0,0,0-37.656-20,2.344,2.344,0,0,0-40-17.656" transform="translate(40 20)" fill="#fff"/>
      </g>
      <g id="g633" transform="translate(37.656 9.375)" opacity="0.4">
        <path id="path635" d="M-40-17.656a2.344,2.344,0,0,0,2.344,2.344,2.344,2.344,0,0,0,2.344-2.344A2.344,2.344,0,0,0-37.656-20,2.344,2.344,0,0,0-40-17.656" transform="translate(40 20)" fill="#fff"/>
      </g>
      <g id="g637" transform="translate(9.375 18.75)">
        <path id="path639" d="M-17.656-15.312H38.906a2.344,2.344,0,0,0,2.344-2.344A2.344,2.344,0,0,0,38.906-20H-17.656A2.344,2.344,0,0,0-20-17.656,2.344,2.344,0,0,0-17.656-15.312Z" transform="translate(20 20)" fill="#fff"/>
      </g>
      <path id="Union_1" data-name="Union 1" d="M14.725.686,11.691,3.721,8.673.7A2.339,2.339,0,0,0,4.8,1.617L.12,15.655a2.338,2.338,0,0,0,2.959,2.959l14.037-4.679a2.339,2.339,0,0,0,.914-3.874L15.005,7.035,18.04,4A2.344,2.344,0,0,0,14.725.686Zm-6.684,6L9.972,8.619l.066.068.068.066,1.94,1.94-6.008,2Z" transform="translate(37.633 46.875) rotate(180)" fill="#fff" opacity="0.4"/>
      <g id="g645" transform="translate(42.344 28.125)" opacity="0.4">
        <path id="path647" d="M-17.656-15.312H-3.594A2.344,2.344,0,0,0-1.25-17.656,2.344,2.344,0,0,0-3.594-20H-17.656A2.344,2.344,0,0,0-20-17.656,2.344,2.344,0,0,0-17.656-15.312Z" transform="translate(20 20)" fill="#fff"/>
      </g>
      <g id="g649" transform="translate(42.344 37.5)" opacity="0.4">
        <path id="path651" d="M-17.656-15.312H-3.594A2.344,2.344,0,0,0-1.25-17.656,2.344,2.344,0,0,0-3.594-20H-17.656A2.344,2.344,0,0,0-20-17.656,2.344,2.344,0,0,0-17.656-15.312Z" transform="translate(20 20)" fill="#fff"/>
      </g>
    </g>
  </g>
</svg>
