<svg id="php" xmlns="http://www.w3.org/2000/svg" width="20" height="20" viewBox="0 0 20 20">
  <path id="Path_88" data-name="Path 88" d="M20,10A10,10,0,0,1,1.333,14.991,10,10,0,1,1,20,10Z" transform="translate(0)" fill="#15b2ff"/>
  <g id="Group_96" data-name="Group 96" transform="translate(0.355 4.795)">
    <path id="Path_89" data-name="Path 89" d="M13.786,178.239h-3.7l-1.055,5.71a9.977,9.977,0,0,0,.985,2.363h.344l.409-2.211H12.8c2.478,0,3.144-2.224,3.3-3.317A2.267,2.267,0,0,0,13.786,178.239Zm.537,2.728a2.032,2.032,0,0,1-1.953,1.881H11l.614-3.323h1.4C14.372,179.525,14.414,180.348,14.324,180.967Z" transform="translate(-9.028 -176.088)" fill="#f2f2f2"/>
    <path id="Path_90" data-name="Path 90" d="M347.435,178.5a2.422,2.422,0,0,0-1.123-.259h-3.7l-1.492,8.072h1.766l.409-2.211h2.035a2.933,2.933,0,0,0,2.345-1.025,10.132,10.132,0,0,0-.236-4.577Zm-.586,2.469a2.032,2.032,0,0,1-1.953,1.881h-1.373l.614-3.323h1.4C346.9,179.524,346.94,180.347,346.849,180.966Z" transform="translate(-328.184 -176.087)" fill="#f2f2f2"/>
    <path id="Path_91" data-name="Path 91" d="M187.132,125.646h-2.144l.4-2.178h-1.758l-1.492,8.072H183.9l.858-4.642h1.124c.746,0,1.252.16,1.146.853s-.719,3.756-.719,3.756h1.785s.693-3.41.8-4.369S188.118,125.646,187.132,125.646Z" transform="translate(-175.398 -123.468)" fill="#f2f2f2"/>
  </g>
</svg>
