<svg id="wordpress" xmlns="http://www.w3.org/2000/svg" width="20" height="20" viewBox="0 0 20 20">
  <path id="Path_92" data-name="Path 92" d="M70.983,41.193h-1.13L72.934,49.9l1.725-4.929-1.337-3.78H72.129v-.83h5.28v.83H76.173L79.254,49.9l1.107-3.165c1.453-4.055-1.191-5.318-1.191-6.223a1.638,1.638,0,0,1,1.638-1.638c.049,0,.1,0,.143.007a8.561,8.561,0,0,0-13,1.48h3.032v.83Z" transform="translate(-65.038 -34.877)" fill="#fff"/>
  <path id="Path_93" data-name="Path 93" d="M36.548,153.734A8.559,8.559,0,0,0,41.1,161.3l-3.863-10.921A8.533,8.533,0,0,0,36.548,153.734Z" transform="translate(-34.877 -143.966)" fill="#fff"/>
  <path id="Path_94" data-name="Path 94" d="M315.295,131.547a6.052,6.052,0,0,1-.1,2.345h.034l-.129.37h0a7.979,7.979,0,0,1-.283.809l-2.946,8.253a8.565,8.565,0,0,0,3.427-11.776Z" transform="translate(-298.076 -125.997)" fill="#fff"/>
  <path id="Path_95" data-name="Path 95" d="M166.075,255.019a8.6,8.6,0,0,0,5.165.037l-2.5-7.079Z" transform="translate(-158.714 -237.105)" fill="#fff"/>
  <path id="Path_96" data-name="Path 96" d="M17.071,2.929A10,10,0,0,0,2.929,17.071,10,10,0,1,0,17.071,2.929ZM10,19.295A9.295,9.295,0,1,1,19.295,10,9.305,9.305,0,0,1,10,19.295Z" fill="#fff"/>
</svg>
