<svg width="1038" height="341" viewBox="0 0 1038 341" fill="none" xmlns="http://www.w3.org/2000/svg"><g id="Technoraft Logo 1" clip-path="url(#clip0_222_46)"><g id="Layer 1"><g id="Group"><g id="Group_2"><path id="Vector" d="M487.73 199.54C484.57 200.46 480.93 200.93 476.8 200.93C472.99 200.93 469.54 200.52 466.44 199.71C463.34 198.89 460.67 197.45 458.44 195.39C456.21 193.32 454.47 190.63 453.22 187.31C451.97 183.99 451.34 179.78 451.34 174.66V133.21H440.9V112H451.34V89.64H476.14V112H496.7V133.21H476.14V170.58C476.14 176.24 478.8 179.07 484.14 179.07C488.49 179.07 492.57 178.04 496.38 175.97V195.88C493.77 197.4 490.89 198.63 487.73 199.55V199.54Z" fill="black"/><path id="Vector_2" d="M596.49 161.27C596.43 162.14 596.35 163.17 596.25 164.37H535.38C536.58 170.03 539.05 174.3 542.8 177.18C546.55 180.06 551.2 181.5 556.75 181.5C560.88 181.5 564.58 180.79 567.85 179.38C571.11 177.97 574.48 175.68 577.97 172.53L592.17 185.09C588.04 190.2 583.03 194.2 577.16 197.08C571.28 199.96 564.37 201.4 556.44 201.4C549.91 201.4 543.85 200.31 538.25 198.14C532.65 195.97 527.81 192.87 523.73 188.84C519.65 184.82 516.47 180.06 514.18 174.56C511.9 169.07 510.75 162.95 510.75 156.2V155.87C510.75 149.67 511.81 143.79 513.93 138.25C516.05 132.7 519.01 127.86 522.82 123.73C526.63 119.6 531.17 116.33 536.45 113.94C541.73 111.55 547.57 110.35 553.99 110.35C561.28 110.35 567.59 111.66 572.92 114.27C578.25 116.88 582.68 120.39 586.22 124.79C589.75 129.2 592.36 134.25 594.05 139.97C595.74 145.68 596.58 151.64 596.58 157.84V158.17C596.58 159.37 596.55 160.4 596.5 161.27H596.49ZM566.55 135.41C563.39 131.98 559.21 130.27 553.99 130.27C548.77 130.27 544.55 131.96 541.34 135.33C538.13 138.7 536.04 143.22 535.06 148.87H572.43C571.67 143.32 569.71 138.83 566.55 135.41Z" fill="black"/><path id="Vector_3" d="M677.51 196.93C672.07 199.92 665 201.42 656.3 201.42C649.77 201.42 643.71 200.22 638.11 197.83C632.51 195.44 627.69 192.2 623.67 188.12C619.64 184.04 616.49 179.25 614.21 173.76C611.93 168.27 610.78 162.42 610.78 156.22V155.89C610.78 149.69 611.92 143.81 614.21 138.27C616.5 132.73 619.65 127.88 623.67 123.75C627.69 119.62 632.51 116.35 638.11 113.96C643.71 111.57 649.88 110.37 656.63 110.37C664.9 110.37 671.75 111.68 677.19 114.29C682.63 116.9 687.41 120.49 691.55 125.06L676.38 141.38C673.55 138.44 670.64 136.11 667.65 134.36C664.66 132.62 660.93 131.75 656.47 131.75C653.31 131.75 650.46 132.38 647.9 133.63C645.34 134.88 643.11 136.59 641.21 138.77C639.31 140.95 637.84 143.48 636.8 146.36C635.76 149.24 635.25 152.32 635.25 155.58V155.91C635.25 159.28 635.76 162.44 636.8 165.37C637.83 168.31 639.33 170.86 641.29 173.04C643.25 175.22 645.59 176.93 648.31 178.18C651.03 179.43 654.08 180.06 657.45 180.06C661.58 180.06 665.2 179.22 668.3 177.53C671.4 175.84 674.47 173.59 677.52 170.76L692.04 185.45C687.8 190.13 682.96 193.96 677.52 196.95L677.51 196.93Z" fill="black"/><path id="Vector_4" d="M763.5 199.46V150.79C763.5 144.93 762.19 140.51 759.58 137.52C756.97 134.54 753.27 133.04 748.48 133.04C743.69 133.04 739.91 134.53 737.14 137.52C734.37 140.5 732.98 144.93 732.98 150.79V199.46H708.18V80.34H732.98V124.5C734.39 122.64 735.94 120.86 737.63 119.16C739.31 117.46 741.19 115.96 743.26 114.64C745.33 113.32 747.61 112.28 750.11 111.52C752.61 110.75 755.44 110.37 758.6 110.37C768.06 110.37 775.38 113.25 780.55 119.02C785.72 124.79 788.3 132.73 788.3 142.84V199.46H763.5Z" fill="black"/><path id="Vector_5" d="M865.16 199.46V150.79C865.16 144.93 863.85 140.51 861.24 137.52C858.63 134.54 854.93 133.04 850.14 133.04C845.35 133.04 841.57 134.53 838.8 137.52C836.03 140.5 834.64 144.93 834.64 150.79V199.46H809.84V111.99H834.64V124.49C836.05 122.63 837.6 120.85 839.29 119.15C840.97 117.45 842.85 115.95 844.92 114.63C846.99 113.31 849.27 112.27 851.77 111.51C854.27 110.74 857.1 110.36 860.26 110.36C869.72 110.36 877.04 113.24 882.21 119.01C887.38 124.78 889.96 132.72 889.96 142.83V199.45H865.16V199.46Z" fill="black"/><path id="Vector_6" d="M998.31 173.59C995.92 179.08 992.6 183.9 988.36 188.03C984.12 192.17 979.11 195.43 973.35 197.82C967.58 200.21 961.27 201.41 954.42 201.41C947.57 201.41 941.42 200.24 935.65 197.9C929.88 195.56 924.91 192.35 920.72 188.27C916.53 184.19 913.24 179.4 910.85 173.91C908.46 168.42 907.26 162.52 907.26 156.2V155.87C907.26 149.56 908.46 143.66 910.85 138.17C913.24 132.68 916.56 127.86 920.8 123.73C925.04 119.6 930.05 116.33 935.81 113.94C941.57 111.55 947.89 110.35 954.74 110.35C961.59 110.35 967.74 111.52 973.51 113.86C979.27 116.2 984.25 119.41 988.44 123.49C992.63 127.57 995.92 132.36 998.31 137.85C1000.7 143.34 1001.9 149.25 1001.9 155.56V155.89C1001.9 162.2 1000.7 168.1 998.31 173.59ZM977.42 155.89C977.42 152.63 976.87 149.55 975.79 146.67C974.7 143.79 973.12 141.23 971.06 139C968.99 136.77 966.55 135 963.72 133.7C960.89 132.39 957.79 131.74 954.42 131.74C950.83 131.74 947.65 132.37 944.87 133.62C942.1 134.87 939.73 136.58 937.77 138.76C935.81 140.94 934.32 143.47 933.28 146.35C932.24 149.23 931.73 152.31 931.73 155.57V155.9C931.73 159.16 932.27 162.24 933.36 165.12C934.45 168 936.02 170.56 938.09 172.79C940.15 175.02 942.58 176.79 945.35 178.09C948.12 179.4 951.25 180.05 954.73 180.05C958.21 180.05 961.5 179.43 964.28 178.17C967.05 176.92 969.42 175.21 971.38 173.03C973.34 170.86 974.83 168.33 975.87 165.44C976.9 162.56 977.42 159.48 977.42 156.22V155.89Z" fill="black"/><path id="Vector_7" d="M498.67 275.94C490.4 275.94 483.9 278.44 479.17 283.45C474.44 288.45 472.07 296.23 472.07 306.78V339.09H447.27V251.63H472.07V269.25C474.57 263.27 478 258.48 482.35 254.89C486.7 251.3 492.57 249.67 499.97 249.99V275.94H498.66H498.67Z" fill="#0D34FB"/><path id="Vector_8" d="M566.71 339.09V329.63C563.66 333 560.02 335.7 555.78 337.71C551.54 339.72 546.37 340.73 540.28 340.73C536.15 340.73 532.26 340.16 528.61 339.02C524.96 337.88 521.78 336.16 519.07 333.88C516.35 331.6 514.2 328.8 512.62 325.48C511.04 322.16 510.25 318.33 510.25 313.98V313.65C510.25 308.86 511.12 304.73 512.86 301.25C514.6 297.77 517.02 294.89 520.12 292.6C523.22 290.32 526.92 288.6 531.22 287.46C535.52 286.32 540.28 285.75 545.5 285.75C549.96 285.75 553.85 286.08 557.17 286.73C560.49 287.38 563.72 288.25 566.88 289.34V287.87C566.88 282.65 565.3 278.68 562.15 275.96C558.99 273.24 554.32 271.88 548.12 271.88C543.33 271.88 539.12 272.29 535.47 273.1C531.83 273.92 527.99 275.09 523.97 276.61L517.77 257.68C522.56 255.62 527.56 253.93 532.78 252.62C538 251.32 544.31 250.66 551.71 250.66C565.31 250.66 575.21 253.98 581.41 260.61C587.61 267.25 590.71 276.49 590.71 288.35V339.1H566.72L566.71 339.09ZM567.2 303.84C565.02 302.86 562.6 302.07 559.94 301.47C557.27 300.87 554.42 300.57 551.37 300.57C546.04 300.57 541.85 301.61 538.81 303.67C535.76 305.74 534.24 308.73 534.24 312.64V312.97C534.24 316.34 535.49 318.95 537.99 320.8C540.49 322.65 543.76 323.57 547.78 323.57C553.66 323.57 558.36 322.16 561.9 319.33C565.43 316.5 567.2 312.8 567.2 308.23V303.82V303.84Z" fill="#0D34FB"/><path id="Vector_9" d="M655.64 240.29C653.9 239.91 651.94 239.72 649.77 239.72C643.79 239.72 640.8 242.88 640.8 249.18V252.61H660.87V272.84H641.13V339.09H616.33V272.84H606.05V252.44H616.33V246.89C616.33 237.21 618.64 230.11 623.26 225.6C627.88 221.09 634.6 218.83 643.41 218.83C647.33 218.83 650.67 219.05 653.45 219.48C656.22 219.92 658.75 220.52 661.04 221.28V241.84C659.19 241.19 657.39 240.67 655.66 240.29H655.64Z" fill="#0D34FB"/><path id="Vector_10" d="M714.88 339.18C711.72 340.1 708.08 340.57 703.95 340.57C700.14 340.57 696.69 340.16 693.59 339.35C690.49 338.53 687.82 337.09 685.59 335.03C683.36 332.96 681.62 330.27 680.37 326.95C679.12 323.63 678.49 319.42 678.49 314.3V272.85H668.05V251.64H678.49V229.28H703.29V251.64H723.85V272.85H703.29V310.22C703.29 315.88 705.95 318.71 711.29 318.71C715.64 318.71 719.72 317.68 723.53 315.61V335.52C720.92 337.04 718.04 338.27 714.88 339.19V339.18Z" fill="#0D34FB"/></g><g id="Group_3"><path id="Vector_11" d="M765.24 280.99C767.09 282.13 769.79 283.07 772.63 283.07C776.84 283.07 779.31 280.84 779.31 277.62C779.31 274.64 777.6 272.93 773.3 271.28C768.09 269.43 764.87 266.74 764.87 262.24C764.87 257.27 768.99 253.57 775.19 253.57C778.46 253.57 780.82 254.33 782.24 255.13L781.1 258.49C780.06 257.92 777.93 256.97 775.04 256.97C770.68 256.97 769.03 259.57 769.03 261.75C769.03 264.73 770.97 266.2 775.37 267.91C780.77 269.99 783.51 272.6 783.51 277.29C783.51 282.21 779.86 286.48 772.34 286.48C769.26 286.48 765.9 285.58 764.2 284.44L765.24 280.98V280.99Z" fill="black"/><path id="Vector_12" d="M816.19 274.36C816.19 282.84 810.32 286.53 804.78 286.53C798.58 286.53 793.79 281.99 793.79 274.74C793.79 267.07 798.81 262.57 805.15 262.57C811.49 262.57 816.18 267.35 816.18 274.36H816.19ZM798.01 274.6C798.01 279.62 800.9 283.41 804.97 283.41C809.04 283.41 811.93 279.67 811.93 274.51C811.93 270.63 809.99 265.7 805.06 265.7C800.13 265.7 798.01 270.25 798.01 274.6Z" fill="black"/><path id="Vector_13" d="M828.03 286.01V266.27H824.81V263.1H828.03V262.01C828.03 258.79 828.74 255.85 830.68 254.01C832.24 252.49 834.33 251.88 836.27 251.88C837.74 251.88 839.02 252.21 839.82 252.54L839.25 255.76C838.63 255.48 837.78 255.24 836.6 255.24C833.05 255.24 832.15 258.36 832.15 261.87V263.1H837.69V266.27H832.15V286.01H828.03Z" fill="black"/><path id="Vector_14" d="M853.13 256.51V263.09H859.1V266.26H853.13V278.62C853.13 281.46 853.93 283.07 856.25 283.07C857.34 283.07 858.14 282.93 858.66 282.79L858.85 285.91C858.05 286.24 856.77 286.48 855.16 286.48C853.22 286.48 851.66 285.86 850.66 284.73C849.48 283.5 849.05 281.46 849.05 278.76V266.26H845.5V263.09H849.05V257.6L853.12 256.51H853.13Z" fill="black"/><path id="Vector_15" d="M872.02 263.1L875.05 274.75C875.71 277.31 876.33 279.67 876.76 282.04H876.9C877.42 279.72 878.18 277.26 878.94 274.8L882.68 263.11H886.18L889.73 274.57C890.58 277.32 891.25 279.73 891.77 282.05H891.91C892.29 279.73 892.9 277.32 893.66 274.62L896.93 263.12H901.05L893.66 286.04H889.87L886.37 275.1C885.57 272.54 884.9 270.27 884.33 267.57H884.24C883.67 270.32 882.96 272.68 882.16 275.15L878.47 286.04H874.68L867.77 263.12H872.03L872.02 263.1Z" fill="black"/><path id="Vector_16" d="M923.87 286.01L923.54 283.12H923.4C922.12 284.92 919.66 286.53 916.39 286.53C911.75 286.53 909.38 283.26 909.38 279.95C909.38 274.41 914.3 271.38 923.16 271.43V270.96C923.16 269.07 922.64 265.66 917.95 265.66C915.82 265.66 913.59 266.32 911.98 267.36L911.03 264.61C912.92 263.38 915.67 262.57 918.56 262.57C925.57 262.57 927.27 267.35 927.27 271.95V280.52C927.27 282.51 927.36 284.45 927.65 286.01H923.86H923.87ZM923.25 274.31C918.7 274.22 913.54 275.02 913.54 279.47C913.54 282.17 915.34 283.45 917.47 283.45C920.45 283.45 922.35 281.56 923.01 279.62C923.15 279.19 923.25 278.72 923.25 278.29V274.31Z" fill="black"/><path id="Vector_17" d="M940.16 270.25C940.16 267.55 940.11 265.23 939.97 263.1H943.62L943.76 267.6H943.95C944.99 264.52 947.5 262.58 950.29 262.58C950.76 262.58 951.09 262.63 951.47 262.72V266.65C951.04 266.56 950.62 266.51 950.05 266.51C947.11 266.51 945.03 268.74 944.46 271.86C944.37 272.43 944.27 273.09 944.27 273.8V286.02H940.15V270.25H940.16Z" fill="black"/><path id="Vector_18" d="M963.65 275.31C963.74 280.94 967.34 283.26 971.51 283.26C974.49 283.26 976.29 282.74 977.85 282.08L978.56 285.06C977.09 285.72 974.58 286.48 970.94 286.48C963.89 286.48 959.67 281.84 959.67 274.93C959.67 268.02 963.74 262.57 970.42 262.57C977.9 262.57 979.89 269.15 979.89 273.37C979.89 274.22 979.8 274.88 979.75 275.31H963.65ZM975.87 272.33C975.92 269.68 974.78 265.56 970.09 265.56C965.88 265.56 964.03 269.44 963.7 272.33H975.87Z" fill="black"/><path id="Vector_19" d="M765.24 327.25C767.09 328.39 769.79 329.33 772.63 329.33C776.84 329.33 779.31 327.1 779.31 323.88C779.31 320.9 777.6 319.19 773.3 317.54C768.09 315.69 764.87 313 764.87 308.5C764.87 303.53 768.99 299.83 775.19 299.83C778.46 299.83 780.82 300.59 782.24 301.39L781.1 304.75C780.06 304.18 777.93 303.23 775.04 303.23C770.68 303.23 769.03 305.83 769.03 308.01C769.03 310.99 770.97 312.46 775.37 314.17C780.77 316.25 783.51 318.86 783.51 323.55C783.51 328.47 779.86 332.74 772.34 332.74C769.26 332.74 765.9 331.84 764.2 330.7L765.24 327.24V327.25Z" fill="black"/><path id="Vector_20" d="M815.34 320.62C815.34 329.1 809.47 332.79 803.93 332.79C797.73 332.79 792.94 328.25 792.94 321C792.94 313.33 797.96 308.83 804.3 308.83C810.64 308.83 815.33 313.61 815.33 320.62H815.34ZM797.16 320.86C797.16 325.88 800.05 329.67 804.12 329.67C808.19 329.67 811.08 325.93 811.08 320.77C811.08 316.89 809.14 311.96 804.21 311.96C799.28 311.96 797.16 316.51 797.16 320.86Z" fill="black"/><path id="Vector_21" d="M825.9 298.65H830.07V332.27H825.9V298.65Z" fill="black"/><path id="Vector_22" d="M861.56 326.01C861.56 328.38 861.61 330.46 861.75 332.26H858.06L857.82 328.52H857.73C856.64 330.37 854.23 332.78 850.15 332.78C846.55 332.78 842.24 330.79 842.24 322.74V309.34H846.41V322.03C846.41 326.39 847.74 329.32 851.52 329.32C854.31 329.32 856.25 327.38 857.01 325.53C857.25 324.91 857.39 324.16 857.39 323.4V309.34H861.56V326.01Z" fill="black"/><path id="Vector_23" d="M878.79 302.77V309.35H884.76V312.52H878.79V324.88C878.79 327.72 879.59 329.33 881.91 329.33C883 329.33 883.8 329.19 884.32 329.05L884.51 332.17C883.71 332.5 882.43 332.74 880.82 332.74C878.88 332.74 877.32 332.12 876.32 330.99C875.14 329.76 874.71 327.72 874.71 325.02V312.52H871.16V309.35H874.71V303.86L878.78 302.77H878.79Z" fill="black"/><path id="Vector_24" d="M899.39 302.91C899.44 304.33 898.4 305.47 896.74 305.47C895.27 305.47 894.23 304.33 894.23 302.91C894.23 301.49 895.32 300.31 896.83 300.31C898.34 300.31 899.39 301.45 899.39 302.91ZM894.75 332.27V309.35H898.92V332.27H894.75Z" fill="black"/><path id="Vector_25" d="M931.87 320.62C931.87 329.1 926 332.79 920.46 332.79C914.26 332.79 909.47 328.25 909.47 321C909.47 313.33 914.49 308.83 920.83 308.83C927.17 308.83 931.86 313.61 931.86 320.62H931.87ZM913.69 320.86C913.69 325.88 916.58 329.67 920.65 329.67C924.72 329.67 927.61 325.93 927.61 320.77C927.61 316.89 925.67 311.96 920.74 311.96C915.81 311.96 913.69 316.51 913.69 320.86Z" fill="black"/><path id="Vector_26" d="M942.44 315.55C942.44 313.18 942.39 311.24 942.25 309.35H945.94L946.18 313.14H946.27C947.41 310.96 950.06 308.83 953.85 308.83C957.02 308.83 961.95 310.72 961.95 318.58V332.26H957.78V319.05C957.78 315.36 956.41 312.28 952.48 312.28C949.73 312.28 947.6 314.22 946.89 316.54C946.7 317.06 946.61 317.77 946.61 318.48V332.26H942.44V315.55Z" fill="black"/><path id="Vector_27" d="M973.45 328C974.68 328.81 976.86 329.66 978.94 329.66C981.97 329.66 983.39 328.15 983.39 326.25C983.39 324.26 982.21 323.17 979.13 322.04C975.01 320.57 973.07 318.3 973.07 315.55C973.07 311.86 976.05 308.83 980.98 308.83C983.3 308.83 985.34 309.49 986.61 310.25L985.57 313.28C984.67 312.71 983.01 311.95 980.88 311.95C978.42 311.95 977.04 313.37 977.04 315.07C977.04 316.96 978.41 317.82 981.4 318.95C985.38 320.46 987.41 322.45 987.41 325.86C987.41 329.88 984.29 332.73 978.84 332.73C976.33 332.73 974.01 332.11 972.4 331.17L973.44 328H973.45Z" fill="black"/></g><path id="icon" style=" transform-origin: center; transform-box: fill-box; animation: translateX 1s linear infinite;" d="M395.65 84.69V169.38H379.92C341.97 169.38 310.96 200.18 310.96 238.37V339.04H169.62L226.03 282.42V169.39H113V282.42H169.62L113 339.04H42.47V169.38H0V84.69H42.47V0H127.15V84.69H310.96V155.22C310.96 116.36 342.39 84.69 381.49 84.69H395.65Z" fill="#0D34FB"/><path id="Vector_28" d="M1024.83 87.84C1017.84 87.84 1012.41 82.23 1012.41 75.42C1012.41 68.61 1017.91 62.93 1024.9 62.93C1031.89 62.93 1037.32 68.54 1037.32 75.35C1037.32 82.16 1031.82 87.83 1024.83 87.83V87.84ZM1024.89 65.12C1019.06 65.12 1014.66 69.74 1014.66 75.42C1014.66 81.1 1019.03 85.65 1024.83 85.65C1030.63 85.65 1035.06 81.03 1035.06 75.36C1035.06 69.69 1030.69 65.12 1024.89 65.12ZM1027.73 76.79L1030.73 81.19H1027.57L1024.96 77.23H1022.83V81.19H1020.12V68.92H1025.57C1028.5 68.92 1030.38 70.42 1030.38 72.96C1030.38 74.97 1029.29 76.22 1027.73 76.79ZM1025.47 71.31H1022.82V74.91H1025.53C1026.9 74.91 1027.64 74.18 1027.64 73.13C1027.64 71.92 1026.81 71.31 1025.47 71.31Z" fill="#383838"/></g></g></g><defs><clipPath id="clip0_222_46"><rect width="1037.32" height="340.73" fill="white"/></clipPath></defs><style> @keyframes translateX { 0%, 100% { transform: translateX(0px); } 50% { transform: translateX(10px); } }</style></svg>