<svg xmlns="http://www.w3.org/2000/svg" width="109.742" height="45" viewBox="0 0 109.742 45">
  <g id="Group_97" data-name="Group 97" transform="translate(-231.883 -442.762)">
    <path id="Path_51" data-name="Path 51" d="M260.807,442.8a65.644,65.644,0,0,0-11.4,1.8,45.829,45.829,0,0,0-12.68,5.191,14.411,14.411,0,0,0-4.291,4.482,4.913,4.913,0,0,0-.555,2.777c0,2.184.575,3.333,2.7,5.44,1.781,1.8,3.659,3.161,8.639,6.283,1.954,1.245,3.6,2.3,3.639,2.337a5.957,5.957,0,0,1-1.341.766c-3.62,1.743-5.536,4.54-5.248,7.662a4.781,4.781,0,0,1-.249,2.222c-.977,2.835.115,4.961,2.969,5.785a14.7,14.7,0,0,0,5.938-.211c3.639-.958,6.9-3.295,7.681-5.536.287-.8.46-1.034.939-1.168,1.437-.441,1.379-.46,1.609.785.249,1.475.555,1.877,1.111,1.532.192-.115.153-.326-.134-.9a3.759,3.759,0,0,1-.383-1.379c0-.555.077-.632.728-.824,1.111-.306,14.251-3.544,16.511-4.061l2.011-.46.8.613a4.491,4.491,0,0,0,3.486,1c1.839-.1,3.218-.824,4.98-2.605,1.13-1.149,1.59-1.475,2.2-1.59.441-.1,2.03-.421,3.563-.747,9.079-1.9,25.9-5.076,26.261-4.942.077.038-.077.421-.364.862a1.985,1.985,0,0,1-1.379,1.034c-.479.115-1.417.364-2.107.556s-1.973.536-2.873.766-2.49.67-3.544.958-2.912.8-4.118,1.13c-6.11,1.647-21.97,6.225-27.027,7.777-7.528,2.318-10.9,3.524-10.9,3.927,0,.287,1.475.23,2.586-.1.536-.153,2.471-.709,4.31-1.245a227.226,227.226,0,0,1,23.809-5.536c4.712-.766,7.432-1.13,11.531-1.532,6.206-.632,8.026-.69,20.208-.69,6.9,0,11.9-.057,11.11-.115a202.933,202.933,0,0,0-41.93,1.283c-3.448.46-4.789.517-3.084.115.479-.1,1.82-.441,2.969-.766,1.168-.306,3.275-.862,4.693-1.245s3.716-.977,5.076-1.36c1.379-.364,3.352-.9,4.406-1.168s2.548-.67,3.333-.881a9.676,9.676,0,0,1,1.475-.326,2.234,2.234,0,0,1-.211.824c-.4,1.111-.364,2.069.1,2.49.824.747,1.954-.249,3.429-2.988l.785-1.456,3.888-1.111c2.126-.594,4.137-1.207,4.463-1.341.517-.211.651-.211.9.038.594.594,1.36-.249,3.141-3.486a22.811,22.811,0,0,0,1.877-3.927c-.038,0-.613,1.015-1.264,2.241-2.05,3.85-3.18,5.44-3.486,4.9a11.188,11.188,0,0,1-.057-1.973c.057-2.145.9-5.593,2.892-11.684,1.245-3.793,1.4-4.406,1.092-4.406-.5,0-1.456,1.724-3.6,6.513-1.36,3.007-1.858,3.927-2.126,3.946a1.706,1.706,0,0,0-1.686.919,1.518,1.518,0,0,1-.843.766,8.175,8.175,0,0,0-1.781.862,15.18,15.18,0,0,1-1.36.785,5.651,5.651,0,0,1,.1-1.283c.211-1.456.1-2.164-.345-2.164a3.558,3.558,0,0,0-1.226.766c-.536.46-.977.69-1.053.575-.287-.479-1.283-.192-2.069.594a10.144,10.144,0,0,1-4.022,2.222c-.862.134-1.36-.23-1.8-1.341-.306-.766-.785-.919-1.207-.421-.211.268-.268.249-.517-.1a.882.882,0,0,0-.517-.383c-.421,0-1.3,1-1.7,1.915-.67,1.513-2.05,3.429-2.548,3.563a.827.827,0,0,1-.575.019,6.874,6.874,0,0,1-.46-2.854,2.864,2.864,0,0,0-.211-1.4c-.1-.077-.536.115-.939.421-1.839,1.3-1.992,1.4-2.165,1.226a4.426,4.426,0,0,1,.249-1.82,9.046,9.046,0,0,0,.345-1.973c-.057-.287-.1-.287-.4.038-.192.172-1.168,1.494-2.184,2.912a19.049,19.049,0,0,1-1.915,2.49,4.837,4.837,0,0,1,.23-1.283,5.911,5.911,0,0,0,.249-1.609c-.057-.364-.1-.345-.383.191a5.185,5.185,0,0,0-.766,2.739c.192,1.341.67.958,2.758-2.145a25.21,25.21,0,0,1,1.59-2.241,3.705,3.705,0,0,1-.211.977c-.69,2.337.077,2.912,1.915,1.437a10.409,10.409,0,0,1,1.168-.881,5.367,5.367,0,0,1,.115,1.379,8.006,8.006,0,0,0,.23,2.069c.192.556.326.69.881.728.747.077,1.264-.326,2.145-1.7.4-.632.67-.881.862-.8.192.057.575-.172,1.034-.613.4-.383.824-.651.939-.594.115.077.211.019.211-.134,0-.383.766-1.322,1-1.245a1.388,1.388,0,0,1,.421.728c.421,1.341,1.839,1.437,4.022.306l1.168-.613-.077.824c-.057.728-.019.824.364.824a3.511,3.511,0,0,0,1.4-.919,6.673,6.673,0,0,1,1.341-1.053.579.579,0,0,0,.326-.479,5.118,5.118,0,0,1,1.762-1.954c.211,0,.192,1.264-.057,2.605a3.618,3.618,0,0,1-1.188,2.2c-.555.575-1.3,1.417-1.686,1.858-.536.632-.824.8-1.283.8a10.154,10.154,0,0,0-1.513.172c-.5.1-1.571.268-2.356.383-.785.134-1.973.306-2.624.4-.67.115-1.781.287-2.49.383-.728.115-1.781.287-2.356.383s-2.126.364-3.448.575c-2.356.383-4.9.824-8.332,1.437-.939.172-2.145.383-2.682.479-.517.1-1.59.287-2.337.441a4.352,4.352,0,0,1-1.4.153,11.161,11.161,0,0,1,.421-1.168,7.117,7.117,0,0,0,.019-4.884c-.536-1.015-1.073-1.475-1.628-1.4-.613.077-.555.613.077.69,1.149.134,1.935,2.3,1.513,4.176-.345,1.532-.881,2.7-1.3,2.835-.4.115-10,2.03-10.209,2.03a5.3,5.3,0,0,1-.67-2.222,10.58,10.58,0,0,1,1.149-5,10.308,10.308,0,0,1,3.965-4.176c.613-.326,1.111-.67,1.111-.785s-.306-.345-.67-.517c-1.666-.8-1.858-2.873-.46-4.98a6.989,6.989,0,0,1,3.62-2.624,2.009,2.009,0,0,1,1.858.211c1.3.67,1.647,1.417,1.494,3.18-.115,1.475.038,1.724.555.977.632-.881.172-3.18-.766-4.022-1.149-1.015-2.605-1.111-4.425-.249-3.218,1.475-4.635,5.191-2.816,7.355l.441.536-1.034.728c-3.773,2.586-5.612,6.819-4.616,10.631a3.94,3.94,0,0,1,.192,1.168,2.219,2.219,0,0,1-.9.268c-1.494.249-10,2.2-14.6,3.352-1.571.4-2.892.709-2.912.709-.057-.077.364-3.869.632-5.5.4-2.394.536-2.682,1.13-2.682.345,0,.479-.1.479-.383a.344.344,0,0,0-.383-.383.6.6,0,0,1-.517-.306c-.077-.23.8-6.493,1.4-9.98.1-.517.383-.8,1.7-1.686,3.62-2.413,7.106-5.746,8.083-7.719a5.079,5.079,0,0,0,.46-3.544c-.46-1.36-2.375-2.548-5-3.084A39.2,39.2,0,0,0,260.807,442.8Zm7.183,1.13c2.931.69,4.022,1.532,4.176,3.256a3.186,3.186,0,0,1-.421,2.088c-.862,1.743-3.831,4.329-7.911,6.9l-.824.5.057-1.8c.038-1.494-.019-1.877-.287-2.145-1.475-1.494-5.133,3.793-9.616,13.945l-1.494,3.371-1.322.306-1.322.287-2.3-1.475c-8.275-5.287-10.746-7.106-12.431-9.137-2.548-3.065-1.283-6.57,3.524-9.769,4.731-3.141,12.814-5.708,20.879-6.608A41.529,41.529,0,0,1,267.99,443.932Zm66.888,7.509c-.268.517-1.475,4.118-2.05,6.091a36,36,0,0,0-1.4,6.8l-.134,1.628-.766.115c-.958.153-1.915.364-4.731,1.034a12.889,12.889,0,0,1-2.337.46,15.782,15.782,0,0,1,.479-2.279c.479-1.9.632-2.279,1.149-2.72a13.9,13.9,0,0,1,2.931-1.686,2.664,2.664,0,0,1,.115,1.054c0,.824.077,1.092.326,1.188.383.153.862-.4,1.609-1.915.364-.69.651-1.053.785-.977.153.1.172.038.1-.192a3.412,3.412,0,0,1,.421-1.609c.881-2.107,3.524-7.509,3.6-7.432C335.031,451.038,334.973,451.249,334.878,451.44Zm-72.443,2.49a16.178,16.178,0,0,1-.211,2.126c-.211,1.188-.23,1.226-1.264,1.9-1.092.69-1.4,1.092-1.053,1.437.172.172.4.153.939,0a3.454,3.454,0,0,1,.747-.172c.019.019-.1.766-.249,1.666s-.517,3.18-.785,5.076l-.517,3.448-.958.038c-.517.038-2.145.134-3.582.249a16.048,16.048,0,0,1-2.835.1c-.249-.153.421-1.9,1.954-5.114,3.39-7.164,6.244-11.646,7.413-11.646C262.377,453.03,262.435,453.145,262.435,453.93Zm67.233,7.26c-.575,1.168-.958,1.551-.958.939a6.183,6.183,0,0,1,1.111-2.567C330.376,459.236,330.319,459.868,329.668,461.19Zm-7.949-.307c.249.4-2.03,2.72-2.356,2.394a1.9,1.9,0,0,1,.345-.977C320.358,461.056,321.374,460.328,321.718,460.883Zm-9.6,1.207a3.636,3.636,0,0,1-1.092,1.13c-.326.172-.326.134-.134-.268.345-.651,1-1.3,1.188-1.188A.281.281,0,0,1,312.122,462.09Zm11.263,3.2c-.345,1.015-.383,1.053-1.149,1.168-.441.057-.8.057-.8,0a11.825,11.825,0,0,1,2.241-2.394A4.077,4.077,0,0,1,323.385,465.289Zm-.651,1.915a1.378,1.378,0,0,1-.383.69,10.772,10.772,0,0,1-2.184.594,3.059,3.059,0,0,1,.46-.843c.5-.8.766-.939,1.8-1C322.925,466.63,322.925,466.649,322.734,467.2Zm-1.686,4a9.7,9.7,0,0,1-1.475,2.145c-.613.536-.709.556-.977.287s-.287-.46-.1-1.36c.383-1.8.575-2.03,1.973-2.394a9.535,9.535,0,0,1,1.3-.268A9.216,9.216,0,0,1,321.048,471.208Zm-61.314-.326c0,.345-.192,2.26-.421,4.252l-.421,3.62-.958.249c-.517.134-.977.249-1,.268-.038,0-.057-.153-.057-.345,0-.9-1.188-2.682-2.816-4.272-.939-.9-1.935-1.82-2.241-2.05-.517-.4-.536-.441-.23-.9.709-1.073,1.915-1.36,6.206-1.417l1.954-.019Zm-8.409.038a3.043,3.043,0,0,1-.192.594l-.192.5-.575-.441c-.517-.383-.555-.441-.249-.575C250.5,470.863,251.325,470.806,251.325,470.921Zm-2.3,1.59c.9.613,1.264,1,1.207,1.188-.306.919-3.735,7.7-4.214,8.351a3.188,3.188,0,0,1-1.954,1.245l-1.4.479-.651-.747a4.028,4.028,0,0,1-.766-1.379c-.1-.575,0-.785.824-1.839a10.034,10.034,0,0,1,4.137-3.218c1.13-.287,1.379-.46,1.379-.977,0-.364-.115-.479-.575-.517-1.149-.1-4.022,2.107-5.8,4.463l-.441.575.077-1.456a6.6,6.6,0,0,1,3.295-5.44,15.337,15.337,0,0,1,3.41-1.628A9.164,9.164,0,0,1,249.026,472.51Zm38.827,1.7a6.8,6.8,0,0,1-4.367,2.145,3.589,3.589,0,0,1-3.026-.8l-.421-.46.536-.134c1.475-.383,7.681-1.781,8.007-1.8C288.868,473.162,288.677,473.411,287.853,474.215ZM252.7,475.479a8.189,8.189,0,0,1,2.548,3.793c.115.46.038.5-1.571.939-.919.249-2.777.785-4.1,1.188-1.341.421-2.452.747-2.509.747a12.316,12.316,0,0,1,.747-1.686c.441-.919,1.264-2.758,1.82-4.118a10.092,10.092,0,0,1,1.226-2.433A10.091,10.091,0,0,1,252.7,475.479Zm2.069,6.953c-1.054,1.686-3.831,3.371-6.9,4.137-2.279.575-4.75.46-6.034-.306a3.006,3.006,0,0,1-1.552-3.046c.211-1.322.383-1.4.958-.421a3.292,3.292,0,0,0,.843,1.053c.172.115.23.211.115.211a1.4,1.4,0,0,0-.575.306c-.326.268-.23.287,1.245.172a9.691,9.691,0,0,0,2.241-.421c.345-.172,2.72-.881,5.287-1.59C255.4,481.168,255.558,481.168,254.773,482.432Z" transform="translate(0)" fill="#3b8992" fill-rule="evenodd"/>
    <path id="Path_52" data-name="Path 52" d="M714.928,564.662a1,1,0,0,0,.475,0c.114-.057.019-.095-.247-.095S714.8,564.6,714.928,564.662Z" transform="translate(-390.325 -98.473)" fill="#3b8992" fill-rule="evenodd"/>
    <path id="Path_53" data-name="Path 53" d="M555.818,505.21c-.608.456-1.975,3.21-2.678,5.337-1.064,3.153-1.424,6.4-.893,7.711.551,1.31,1.937.817,3.988-1.405,1.69-1.861,1.406-1.861-.4-.019-1.519,1.557-2.45,2.089-2.849,1.69a4.23,4.23,0,0,1-.418-2.469,10.168,10.168,0,0,1,1.045-2.222,31.924,31.924,0,0,0,3.039-7.293c.209-1.007.209-1.2-.038-1.443C556.349,504.83,556.273,504.849,555.818,505.21Zm.627.76a8.569,8.569,0,0,1-.494,2.032,41.521,41.521,0,0,1-2.83,6.154c-.323.418-.323.418-.209-.4a33.037,33.037,0,0,1,2.811-7.768C556.2,505.229,556.444,505.21,556.444,505.97Z" transform="translate(-258.776 -50.202)" fill="#3b8992" fill-rule="evenodd"/>
    <path id="Path_54" data-name="Path 54" d="M402.991,520.11c-.988,1.045-2.792,6.059-3.267,9.059-.247,1.614-.19,3.457.114,3.552a5.125,5.125,0,0,0,1.14-1.69,15.308,15.308,0,0,1,1.652-2.526c.722-.741.741-.741,1.007-.38a1.556,1.556,0,0,1,.171,1.216c-.171,1.2-.228,1.272-1.234,2.013-1.9,1.386-2.925,3.7-1.69,3.855.7.076,1.576-.893,2.488-2.773.741-1.557.779-1.6,1.918-2.127,2.089-.931,2.013-.95,2.07.323.057,1.045.095,1.1.57,1.159.418.057.608-.076,1.007-.7a2.062,2.062,0,0,0,.437-1.633,5.627,5.627,0,0,1-.038-.855c.019,0,.342.133.7.285a3.821,3.821,0,0,0,2.507.095c.247-.114.076-.133-.57-.076a3.08,3.08,0,0,1-2.222-.551l-1.273-.665-.456.76c-.4.7-.608.836-2.051,1.31-.874.3-1.633.551-1.69.551a2.509,2.509,0,0,1-.038-.931c.095-1.121-.19-1.728-.8-1.728-.627,0-1.443.893-2.469,2.716-.722,1.292-.874,1.462-.874,1.007a4.778,4.778,0,0,1,.836-1.8c1.614-2.412,3.039-6.666,2.925-8.718C403.807,519.655,403.579,519.465,402.991,520.11Zm.646,1.481a25.44,25.44,0,0,1-2.184,6.59c-1.348,2.659-1.5,2.26-.513-1.329a35.227,35.227,0,0,1,2.241-6.172C403.617,520.148,403.769,520.433,403.636,521.592Zm5.489,8.148c-.171.912-.627,1.709-.95,1.709-.418,0-.361-1.254.114-2.279.38-.817.4-.836.665-.475A1.317,1.317,0,0,1,409.125,529.74Zm-5.983,1.937c0,.57-1.8,3.191-2.2,3.191-.779,0-.361-1.121.931-2.431C402.858,531.449,403.143,531.259,403.143,531.677Z" transform="translate(-135.529 -62.171)" fill="#3b8992" fill-rule="evenodd"/>
  </g>
</svg>
