<svg id="check" xmlns="http://www.w3.org/2000/svg" width="32" height="32" viewBox="0 0 32 32">
  <path id="Path_29" data-name="Path 29" d="M0,0H32V32H0Z" fill="none"/>
  <path id="Path_30" data-name="Path 30" d="M4.341,3H25.789A1.341,1.341,0,0,1,27.13,4.341V25.789a1.341,1.341,0,0,1-1.341,1.341H4.341A1.341,1.341,0,0,1,3,25.789V4.341A1.341,1.341,0,0,1,4.341,3ZM5.681,5.681V24.448H24.448V5.681Zm8.047,14.746L8.04,14.739l1.9-1.9,3.792,3.792L21.31,9.052l1.9,1.9Z" transform="translate(0.935 0.935)"/>
</svg>
