<svg xmlns="http://www.w3.org/2000/svg" width="322.139" height="82" viewBox="0 0 322.139 82">
  <g id="service_pattern" transform="translate(-158.091 -102.135)">
    <path id="Path_82" data-name="Path 82" d="M794.974,183.135v-53.3h-26.7l26.7-26.7h-26.7l-26.649,26.649v53.351Z" transform="translate(-369.096)" fill="none" stroke="#f8f8f8" stroke-miterlimit="10" stroke-width="2"/>
    <path id="Path_83" data-name="Path 83" d="M887.235,103.135v53.3h26.7l-26.7,26.7h26.7l26.649-26.649V103.135Z" transform="translate(-461.357)" fill="none" stroke="#f8f8f8" stroke-miterlimit="10" stroke-width="2"/>
    <path id="Path_87" data-name="Path 87" d="M503.667,183.135v-53.3h-26.7l26.7-26.7h-26.7l-26.649,26.649v53.351Z" transform="translate(-184.522)" fill="none" stroke="#f8f8f8" stroke-miterlimit="10" stroke-width="2"/>
    <path id="Path_88" data-name="Path 88" d="M595.928,103.135v53.3h26.7l-26.7,26.7h26.7l26.649-26.649V103.135Z" transform="translate(-276.783)" fill="none" stroke="#f8f8f8" stroke-miterlimit="10" stroke-width="2"/>
    <path id="Path_89" data-name="Path 89" d="M212.442,183.135v-53.3h-26.7l26.7-26.7h-26.7l-26.649,26.649v53.351Z" fill="none" stroke="#f8f8f8" stroke-miterlimit="10" stroke-width="2"/>
    <path id="Path_90" data-name="Path 90" d="M304.7,103.135v53.3h26.7l-26.7,26.7h26.7l26.649-26.649V103.135Z" transform="translate(-92.261)" fill="none" stroke="#f8f8f8" stroke-miterlimit="10" stroke-width="2"/>
  </g>
</svg>
