<svg width="395" height="591" viewBox="0 0 395 591" fill="none" xmlns="http://www.w3.org/2000/svg">
<g opacity="0.1">
<path d="M295.481 589.999V491.938H246.352L295.481 442.809H246.352L197.321 491.84V589.999H295.481Z" stroke="white" stroke-width="2" stroke-miterlimit="10"/>
<path d="M295.481 442.809V540.87H344.61L295.481 589.999H344.61L393.641 540.968V442.809H295.481Z" stroke="white" stroke-width="2" stroke-miterlimit="10"/>
<path d="M99.16 589.999V491.938H50.031L99.16 442.809H50.031L1 491.84V589.999H99.16Z" stroke="white" stroke-width="2" stroke-miterlimit="10"/>
<path d="M99.157 442.809V540.87H148.286L99.157 589.999H148.286L197.317 540.968V442.809H99.157Z" stroke="white" stroke-width="2" stroke-miterlimit="10"/>
<path d="M295.481 442.809V344.748H246.352L295.481 295.619H246.352L197.321 344.65V442.809H295.481Z" stroke="white" stroke-width="2" stroke-miterlimit="10"/>
<path d="M295.481 295.619V393.681H344.61L295.481 442.81H344.61L393.641 393.779V295.619H295.481Z" stroke="white" stroke-width="2" stroke-miterlimit="10"/>
<path d="M99.16 442.809V344.748H50.031L99.16 295.619H50.031L1 344.65V442.809H99.16Z" stroke="white" stroke-width="2" stroke-miterlimit="10"/>
<path d="M99.157 295.619V393.681H148.286L99.157 442.809H148.286L197.317 393.778V295.619H99.157Z" stroke="white" stroke-width="2" stroke-miterlimit="10"/>
<path d="M295.481 295.38V197.319H246.352L295.481 148.19H246.352L197.321 197.221V295.38H295.481Z" stroke="white" stroke-width="2" stroke-miterlimit="10"/>
<path d="M295.481 148.19V246.251H344.61L295.481 295.38H344.61L393.641 246.349V148.19H295.481Z" stroke="white" stroke-width="2" stroke-miterlimit="10"/>
<path d="M99.16 295.38V197.319H50.031L99.16 148.19H50.031L1 197.221V295.38H99.16Z" stroke="white" stroke-width="2" stroke-miterlimit="10"/>
<path d="M99.157 148.19V246.251H148.286L99.157 295.38H148.286L197.317 246.349V148.19H99.157Z" stroke="white" stroke-width="2" stroke-miterlimit="10"/>
<path d="M295.481 148.19V50.129H246.352L295.481 1H246.352L197.321 50.031V148.19H295.481Z" stroke="white" stroke-width="2" stroke-miterlimit="10"/>
<path d="M295.481 1V99.065H344.61L295.481 148.194H344.61L393.641 99.163V1H295.481Z" stroke="white" stroke-width="2" stroke-miterlimit="10"/>
<path d="M99.16 148.19V50.129H50.031L99.16 1H50.031L1 50.031V148.19H99.16Z" stroke="white" stroke-width="2" stroke-miterlimit="10"/>
<path d="M99.157 1V99.065H148.286L99.157 148.19H148.286L197.317 99.159V1H99.157Z" stroke="white" stroke-width="2" stroke-miterlimit="10"/>
</g>
</svg>
