<svg width="53" height="226" viewBox="0 0 53 226" fill="none" xmlns="http://www.w3.org/2000/svg"><g id="techno_pattern 1" clip-path="url(#clip0_201_2)"><path id="path" style="transform-origin: center; transform-box: fill-box; animation: clip 2s linear infinite alternate; " opacity="0.1" d="M40.193 192.309V209.575C40.193 214.738 38.8727 218.589 36.232 221.128C33.8113 223.481 30.3073 224.843 25.72 225.216H18.001V216.304H25.694C27.0318 216.481 28.3926 216.324 29.655 215.847C30.6562 215.436 31.4763 214.679 31.966 213.714C32.5378 212.412 32.7987 210.995 32.728 209.575V192.309H40.193ZM36.793 184.235C39.0597 186.385 40.193 189.491 40.193 193.553V194.823L39.457 197.083H33.465L32.729 194.823V194.315C32.7978 193.616 32.7228 192.911 32.5087 192.242C32.2946 191.574 31.9459 190.956 31.484 190.427C30.6547 189.648 29.1567 189.259 26.99 189.259H13.381L13.381 180.753H27.041C31.273 180.924 34.523 182.085 36.791 184.234L36.793 184.235ZM23.916 185.301C26.5534 183.8 29.0748 182.104 31.459 180.227C31.9132 179.739 32.2607 179.162 32.4793 178.533C32.698 177.903 32.783 177.235 32.729 176.571V175.124L33.618 173.448H39.458L40.194 175.2V177.663C40.2536 179.886 39.7001 182.082 38.594 184.011C37.6589 185.455 36.4197 186.676 34.963 187.591L23.916 185.301ZM18.281 208.127C18.288 208.68 18.1825 209.228 17.9709 209.739C17.7593 210.25 17.446 210.712 17.05 211.098C16.673 211.496 16.2179 211.812 15.7133 212.026C15.2086 212.24 14.6652 212.348 14.117 212.342C13.5649 212.349 13.0172 212.243 12.5082 212.029C11.9993 211.814 11.5399 211.498 11.159 211.098C10.763 210.712 10.4497 210.25 10.2381 209.739C10.0265 209.228 9.92097 208.68 9.928 208.127C9.91871 207.57 10.0231 207.016 10.2347 206.5C10.4464 205.985 10.7608 205.517 11.159 205.127C11.5402 204.728 11.9995 204.412 12.5083 204.199C13.017 203.985 13.5644 203.879 14.116 203.887C14.6674 203.879 15.2143 203.987 15.7215 204.204C16.2287 204.42 16.685 204.741 17.061 205.144C17.4535 205.534 17.7636 206 17.9732 206.512C18.1827 207.024 18.2874 207.573 18.281 208.127ZM18.281 198.961C18.288 199.514 18.1825 200.062 17.9709 200.573C17.7593 201.084 17.446 201.546 17.05 201.932C16.673 202.33 16.2179 202.646 15.7133 202.86C15.2086 203.074 14.6652 203.182 14.117 203.176C13.5649 203.183 13.0172 203.077 12.5082 202.863C11.9993 202.648 11.5399 202.332 11.159 201.932C10.763 201.546 10.4497 201.084 10.2381 200.573C10.0265 200.062 9.92097 199.514 9.928 198.961C9.91871 198.404 10.0231 197.85 10.2347 197.334C10.4464 196.819 10.7608 196.351 11.159 195.961C11.5399 195.561 11.9993 195.245 12.5082 195.03C13.0172 194.816 13.5649 194.71 14.117 194.717C14.6684 194.709 15.2153 194.817 15.7225 195.034C16.2297 195.25 16.686 195.571 17.062 195.974C17.4548 196.365 17.765 196.831 17.9744 197.344C18.1838 197.857 18.2881 198.407 18.281 198.961ZM32.728 156.102L26.583 154.731C24.4497 154.274 22.8417 154.443 21.759 155.239C21.2355 155.611 20.8128 156.107 20.5291 156.683C20.2454 157.26 20.1096 157.897 20.134 158.539C20.1136 159.402 20.3621 160.249 20.845 160.964C21.3889 161.704 22.1337 162.273 22.991 162.602C24.1022 163.036 25.2893 163.243 26.482 163.211C28.19 163.35 29.8836 162.807 31.192 161.7C31.7513 161.053 32.1754 160.301 32.4392 159.488C32.703 158.675 32.8012 157.817 32.728 156.965V156.102ZM32.728 169.762C30.834 170.895 28.664 171.483 26.457 171.462C23.9976 171.5 21.5659 170.938 19.373 169.824C17.3309 168.785 15.6235 167.19 14.447 165.224C13.2505 163.209 12.6355 160.902 12.67 158.559C12.631 156.199 13.2461 153.875 14.447 151.843C15.6797 149.83 17.4774 148.225 19.616 147.227C22.0432 146.102 24.7883 145.864 27.373 146.554L40.195 149.554L40.195 175.224L39.459 176.976H33.465L32.729 175.224L32.728 169.762ZM11.016 157.879C11.023 158.432 10.9175 158.98 10.7059 159.491C10.4943 160.002 10.181 160.464 9.785 160.85C9.40801 161.248 8.95294 161.564 8.44826 161.778C7.94359 161.992 7.40017 162.1 6.852 162.094C6.29989 162.101 5.75222 161.995 5.24324 161.781C4.73427 161.566 4.27494 161.25 3.894 160.85C3.49805 160.464 3.18473 160.002 2.97311 159.491C2.76148 158.98 2.65597 158.432 2.663 157.879C2.65372 157.322 2.75807 156.768 2.96972 156.252C3.18136 155.737 3.49585 155.269 3.894 154.879C4.27494 154.479 4.73427 154.163 5.24324 153.948C5.75222 153.734 6.29989 153.628 6.852 153.635C7.40342 153.627 7.95031 153.735 8.45751 153.952C8.96471 154.168 9.42099 154.489 9.797 154.892C10.1898 155.283 10.5 155.749 10.7094 156.262C10.9188 156.775 11.0231 157.325 11.016 157.879ZM-0.0039978 138.506L-0.0039978 130.356H11.219L40.19 130.305V138.557L11.219 138.506H-0.0039978ZM44.484 128.327V123.02C44.5514 122.271 44.4617 121.516 44.2206 120.803C43.9795 120.09 43.5924 119.436 43.084 118.881C42.1507 118.018 40.568 117.586 38.336 117.586H13.381V109.334H38.467C42.851 109.334 46.1687 110.467 48.42 112.734C50.6713 115.001 51.9663 118.318 52.305 122.687V128.327H44.484ZM32.729 85.49L28.057 85.515C25.0437 85.515 22.97 85.9213 21.836 86.734C21.2869 87.116 20.8432 87.6305 20.546 88.2298C20.2488 88.8291 20.1078 89.4937 20.136 90.162C20.1234 91.0018 20.3769 91.824 20.86 92.511C21.4074 93.2481 22.1446 93.8229 22.993 94.174C24.0567 94.6216 25.2033 94.838 26.357 94.809C28.6083 94.809 30.2333 94.318 31.232 93.336C32.2307 92.354 32.7307 90.763 32.732 88.563L32.729 85.49ZM40.194 77.873C42.9257 78.4253 45.4389 79.757 47.43 81.707C50.3587 84.669 51.823 89.1207 51.823 95.062V102.755H44.104V94.985C44.104 92.0903 43.613 89.9407 42.631 88.536C41.649 87.1313 40.8363 86.3617 40.193 86.227V88.563C40.193 93.3023 39.0263 96.9023 36.693 99.363C34.3597 101.824 30.915 103.055 26.359 103.057C23.9241 103.094 21.5175 102.531 19.351 101.419C17.3197 100.374 15.6221 98.7803 14.451 96.819C13.2545 94.8041 12.6395 92.4971 12.674 90.154C12.635 87.7942 13.2501 85.4697 14.451 83.438C15.6563 81.4475 17.4229 79.8576 19.529 78.868C21.9108 77.7538 24.517 77.2022 27.146 77.256H32.732V72.656L33.468 70.904H39.457L40.193 72.656L40.194 77.873ZM33.616 50.908H39.456L40.192 52.66V54.818C40.1573 56.7986 39.5774 58.7314 38.516 60.404C37.3987 62.266 35.3503 63.8233 32.371 65.076V60.963C35.2823 61.963 37.3137 63.263 38.465 64.863C39.6163 66.463 40.1923 68.751 40.193 71.727V72.717L39.457 74.469H33.465L32.729 72.717V71.727C32.783 71.0628 32.698 70.3946 32.4793 69.7651C32.2607 69.1356 31.9132 68.5587 31.459 68.071C30.6123 67.2757 29.2243 66.9287 27.295 67.03H15.916L15.916 58.346H27.291C29.221 58.4473 30.609 58.1003 31.455 57.305C31.9092 56.8173 32.2567 56.2403 32.4753 55.6109C32.694 54.9814 32.779 54.3132 32.725 53.649V52.583L33.616 50.908ZM14.27 62.359C14.2765 62.9114 14.1706 63.4593 13.9588 63.9695C13.7471 64.4798 13.4338 64.9416 13.038 65.327C12.661 65.725 12.2059 66.0409 11.7013 66.2549C11.1966 66.469 10.6532 66.5766 10.105 66.571C9.55289 66.5783 9.00522 66.4716 8.49625 66.2575C7.98727 66.0435 7.52794 65.7267 7.147 65.327C6.75142 64.9415 6.43831 64.4796 6.2267 63.9694C6.01509 63.4592 5.90938 62.9113 5.916 62.359C5.90671 61.8016 6.01108 61.2481 6.22272 60.7323C6.43436 60.2165 6.74885 59.7492 7.147 59.359C7.52794 58.9593 7.98727 58.6425 8.49625 58.4285C9.00522 58.2144 9.55289 58.1077 10.105 58.115C10.6564 58.1074 11.2033 58.2154 11.7105 58.4319C12.2177 58.6484 12.674 58.9686 13.05 59.372C13.4429 59.7629 13.7534 60.2287 13.963 60.7418C14.1725 61.2549 14.2769 61.8048 14.27 62.359ZM33.47 18.839H39.457L40.193 20.339L40.193 52.914L39.457 54.414H33.465L32.729 52.914L32.729 37.327C32.8661 35.9211 32.4468 34.5174 31.561 33.417C31.08 32.9975 30.5201 32.6781 29.9142 32.4775C29.3082 32.277 28.6683 32.1993 28.032 32.249C27.4002 32.2009 26.7652 32.2794 26.1642 32.48C25.5632 32.6806 25.0083 32.9991 24.532 33.417C23.6462 34.5174 23.2269 35.9211 23.364 37.327V49.08H17.829L0.309002 35.293L4.575 28.768L15.899 37.909V37.325C15.835 34.8445 16.3253 32.381 17.334 30.114C18.2072 28.1909 19.6642 26.5918 21.498 25.544C23.4457 24.4794 25.6389 23.9452 27.858 23.995C29.44 23.9715 31.0086 24.2876 32.458 24.922C34.2957 25.9651 35.8582 27.4313 37.016 29.199H32.729V20.338L33.47 18.839ZM36.791 7.008C39.0577 9.158 40.191 12.264 40.191 16.326V20.642L39.455 22.394H33.465L32.729 20.642V19.627C32.729 16.123 32.3143 13.9817 31.485 13.203C30.6557 12.4243 29.1577 12.035 26.991 12.035H13.381L13.381 3.52699H27.041C31.273 3.69766 34.523 4.858 36.791 7.008ZM10.715 13.408C10.722 13.9608 10.6165 14.5093 10.4049 15.02C10.1933 15.5308 9.87995 15.9932 9.484 16.379C9.10701 16.777 8.65194 17.0929 8.14726 17.3069C7.64259 17.521 7.09917 17.6286 6.551 17.623C5.99889 17.6303 5.45122 17.5236 4.94225 17.3095C4.43327 17.0955 3.97394 16.7787 3.593 16.379C3.19705 15.9932 2.88373 15.5308 2.6721 15.02C2.46048 14.5093 2.35497 13.9608 2.362 13.408C2.35271 12.8506 2.45707 12.2971 2.66872 11.7813C2.88036 11.2655 3.19484 10.7983 3.593 10.408C3.97394 10.0083 4.43327 9.69151 4.94225 9.47746C5.45122 9.26341 5.99889 9.1567 6.551 9.164C7.10286 9.15722 7.65003 9.2661 8.15725 9.48363C8.66448 9.70116 9.12052 10.0225 9.496 10.427C9.88797 10.8169 10.1979 11.2814 10.4074 11.7931C10.6169 12.3047 10.7219 12.8531 10.716 13.406L10.715 13.408ZM10.715 4.242C10.722 4.79482 10.6165 5.34328 10.4049 5.85403C10.1933 6.36479 9.87995 6.82715 9.484 7.213C9.10701 7.61098 8.65194 7.92689 8.14726 8.14095C7.64259 8.355 7.09917 8.46259 6.551 8.457C5.99889 8.4643 5.45122 8.35758 4.94225 8.14352C4.43327 7.92947 3.97394 7.61269 3.593 7.213C3.19705 6.82715 2.88373 6.36479 2.6721 5.85403C2.46048 5.34328 2.35497 4.79482 2.362 4.242C2.35271 3.68457 2.45707 3.13108 2.66872 2.6153C2.88036 2.09951 3.19484 1.63225 3.593 1.242C3.97411 0.84267 4.43352 0.52625 4.94249 0.312546C5.45146 0.0988414 5.99904 -0.00755604 6.551 0C7.10242 -0.00754987 7.64931 0.100394 8.15651 0.316879C8.66371 0.533365 9.11999 0.853604 9.496 1.257C9.88846 1.6474 10.1986 2.11254 10.4082 2.62491C10.6177 3.13728 10.7224 3.68648 10.716 4.24001L10.715 4.242Z" fill="white"/></g><defs><clipPath id="clip0_201_2"><rect width="52.305" height="225.215" fill="white"/></clipPath></defs><style> @keyframes clip { 0% { clip-path: polygon(0 0, 100% 0%, 100% 0, 0 0); } 50% { clip-path: polygon(0 0, 100% 0%, 100% 50%, 0 50%); } 100% { clip-path: polygon(0 0, 100% 0%, 100% 100%, 0 100%); } }</style></svg>