<svg width="40" height="40" viewBox="0 0 40 40" fill="none" xmlns="http://www.w3.org/2000/svg"><g id="vision 1" clip-path="url(#clip0_220_2)"><g id="g1929"><g id="g1931"><g id="Clip path group"><mask id="mask0_220_2" style="mask-type:luminance" maskUnits="userSpaceOnUse" x="0" y="0" width="40" height="40"><g id="clip-path"><path id="path1935" d="M0 0H40V40H0V0Z" fill="white"/></g></mask><g mask="url(#mask0_220_2)"><g id="g1933"><g id="scale" style="transform-origin: center; transform-box: fill-box; animation: pulse 2s linear infinite;"><g id="g1939"><path id="path1941" d="M1.17201 7.10899C1.01776 7.10899 0.86503 7.07855 0.722575 7.0194C0.58012 6.96025 0.450744 6.87356 0.341861 6.76431C0.232978 6.65505 0.146732 6.52538 0.0880691 6.38273C0.0294063 6.24007 -0.000519612 6.08724 6.82661e-06 5.93299V1.16699C6.82661e-06 0.856158 0.123485 0.558057 0.343278 0.338264C0.563071 0.118472 0.861174 -0.00500488 1.17201 -0.00500488H5.93801C6.24884 -0.00500488 6.54694 0.118472 6.76674 0.338264C6.98653 0.558057 7.11001 0.856158 7.11001 1.16699C7.11001 1.47783 6.98653 1.77593 6.76674 1.99572C6.54694 2.21551 6.24884 2.33899 5.93801 2.33899H2.34401V5.93299C2.34453 6.08724 2.31461 6.24007 2.25594 6.38273C2.19728 6.52538 2.11104 6.65505 2.00215 6.76431C1.89327 6.87356 1.76389 6.96025 1.62144 7.0194C1.47898 7.07855 1.32625 7.10899 1.17201 7.10899Z" fill="white"/></g><g id="g1943"><path id="path1945" d="M5.93299 40H1.16699C0.856158 40 0.558057 39.8765 0.338264 39.6567C0.118472 39.437 -0.00500488 39.1388 -0.00500488 38.828V34.062C-0.00500488 33.7512 0.118472 33.4531 0.338264 33.2333C0.558057 33.0135 0.856158 32.89 1.16699 32.89C1.47783 32.89 1.77593 33.0135 1.99572 33.2333C2.21551 33.4531 2.33899 33.7512 2.33899 34.062V37.656H5.93299C6.0869 37.6555 6.23941 37.6853 6.38181 37.7437C6.5242 37.8021 6.65369 37.888 6.76289 37.9965C6.8721 38.1049 6.95887 38.2338 7.01825 38.3758C7.07763 38.5178 7.10847 38.6701 7.10899 38.824C7.10952 38.9786 7.07947 39.1318 7.02055 39.2747C6.96164 39.4176 6.87504 39.5474 6.76573 39.6568C6.65642 39.7661 6.52657 39.8527 6.38365 39.9116C6.24073 39.9705 6.08757 40.0005 5.93299 40Z" fill="white"/></g><g id="g1947"><path id="path1949" d="M38.829 7.109C38.5182 7.109 38.2201 6.98552 38.0003 6.76573C37.7805 6.54594 37.657 6.24783 37.657 5.937V2.343H34.063C33.7523 2.343 33.4544 2.21966 33.2346 2.00008C33.0149 1.78051 32.8913 1.48266 32.891 1.172C32.891 0.861167 33.0145 0.563064 33.2343 0.343271C33.4541 0.123479 33.7522 0 34.063 0H38.829C39.1398 0 39.4379 0.123479 39.6577 0.343271C39.8775 0.563064 40.001 0.861167 40.001 1.172V5.938C40.0007 6.24866 39.8771 6.54651 39.6574 6.76608C39.4376 6.98566 39.1397 7.109 38.829 7.109Z" fill="white"/></g><g id="g1951"><path id="path1953" d="M38.824 40H34.058C33.7471 40 33.449 39.8765 33.2293 39.6567C33.0095 39.4369 32.886 39.1388 32.886 38.828C32.886 38.5172 33.0095 38.2191 33.2293 37.9993C33.449 37.7795 33.7471 37.656 34.058 37.656H37.652V34.062C37.6523 33.7513 37.7758 33.4535 37.9956 33.2339C38.2154 33.0143 38.5133 32.891 38.824 32.891C39.1348 32.891 39.4329 33.0145 39.6527 33.2343C39.8725 33.4541 39.996 33.7522 39.996 34.063V38.829C39.9957 39.1397 39.8721 39.4375 39.6524 39.6571C39.4326 39.8767 39.1346 40 38.824 40Z" fill="white"/></g></g><g id="g1955" opacity="0.4"><path id="path1957" d="M19.997 28.203C17.8232 28.1998 15.7393 27.3349 14.2022 25.7978C12.6651 24.2606 11.8002 22.1768 11.797 20.003C11.8002 17.8292 12.6651 15.7453 14.2022 14.2082C15.7393 12.6711 17.8232 11.8062 19.997 11.803C22.1708 11.8062 24.2547 12.6711 25.7918 14.2082C27.3289 15.7453 28.1938 17.8292 28.197 20.003C28.1938 22.1768 27.3289 24.2606 25.7918 25.7978C24.2547 27.3349 22.1708 28.1998 19.997 28.203ZM19.997 14.14C18.4437 14.1418 16.9545 14.7597 15.8561 15.8581C14.7577 16.9565 14.1399 18.4457 14.138 19.999C14.1399 21.5523 14.7577 23.0415 15.8561 24.1399C16.9545 25.2383 18.4437 25.8561 19.997 25.858C21.5503 25.8561 23.0395 25.2383 24.1379 24.1399C25.2363 23.0415 25.8541 21.5523 25.856 19.999C25.8541 18.4457 25.2363 16.9565 24.1379 15.8581C23.0395 14.7597 21.5503 14.1418 19.997 14.14Z" fill="white"/></g><g id="g1959" opacity="0.4"><path id="path1961" d="M20 16.484C20.9322 16.4851 21.8258 16.8558 22.485 17.515C23.1441 18.1741 23.5149 19.0678 23.516 20C23.5149 20.9322 23.1441 21.8259 22.485 22.485C21.8258 23.1442 20.9322 23.515 20 23.516C19.0678 23.515 18.1741 23.1442 17.515 22.485C16.8558 21.8259 16.485 20.9322 16.484 20C16.485 19.0678 16.8558 18.1741 17.515 17.515C18.1741 16.8558 19.0678 16.4851 20 16.484ZM20 21.171C20.3107 21.1707 20.6087 21.0472 20.8284 20.8274C21.0482 20.6077 21.1717 20.3098 21.172 19.999C21.1717 19.6883 21.0482 19.3903 20.8284 19.1706C20.6087 18.9508 20.3107 18.8273 20 18.827C19.6892 18.8273 19.3913 18.9508 19.1715 19.1706C18.9518 19.3903 18.8282 19.6883 18.828 19.999C18.828 20.3099 18.9514 20.6081 19.1712 20.8281C19.391 21.048 19.6891 21.1707 20 21.171Z" fill="white"/></g><g id="g1963"><path id="path1965" d="M20 7.10797C30.83 7.10797 39.417 18.814 39.778 19.308C39.9223 19.5078 40.0001 19.748 40.0001 19.9945C40.0001 20.241 39.9223 20.4812 39.778 20.681C39.418 21.181 30.83 32.881 20 32.881C9.17 32.881 0.581985 21.175 0.221985 20.681C0.0775996 20.4812 -0.00012207 20.241 -0.00012207 19.9945C-0.00012207 19.748 0.0775996 19.5078 0.221985 19.308C0.581985 18.814 9.17 7.10797 20 7.10797ZM37.344 19.999C35.375 17.557 28.217 9.45197 20 9.45197C11.783 9.45197 4.62501 17.557 2.65601 19.999C4.62501 22.441 11.783 30.546 20 30.546C28.217 30.546 35.375 22.441 37.344 19.999Z" fill="white"/></g></g></g></g></g></g></g><defs><clipPath id="clip0_220_2"><rect width="40" height="40" fill="white"/></clipPath></defs><style> @keyframes pulse { 0% { transform: scale3d(1, 1, 1); } 50% { transform: scale3d( .9, .9 , .9); } 100% { transform: scale3d(1, 1, 1); } }</style></svg>