<svg xmlns="http://www.w3.org/2000/svg" width="112.581" height="45" viewBox="0 0 112.581 45">
  <g id="Group_116" data-name="Group 116" transform="translate(-601.569 -110.499)">
    <g id="Group_115" data-name="Group 115" transform="translate(622.215 123.225)">
      <g id="Group_114" data-name="Group 114">
        <g id="Group_104" data-name="Group 104">
          <path id="Path_113" data-name="Path 113" d="M635.443,128.034a4.409,4.409,0,0,0-1.231-.726,5.28,5.28,0,0,0-1.62-.363c-.141-.011-.281-.016-.418-.016a4.848,4.848,0,0,0-1.247.156,3.516,3.516,0,0,0-1.234.581,2.689,2.689,0,0,0-.77.914,2.5,2.5,0,0,0-.271,1.151v14.124a2.626,2.626,0,0,0,.26,1.16,2.545,2.545,0,0,0,.744.909,3.413,3.413,0,0,0,1.2.583,4.819,4.819,0,0,0,1.6.144,5.606,5.606,0,0,0,1.668-.349,4.563,4.563,0,0,0,1.271-.724,3.088,3.088,0,0,0,.8-.971,2.388,2.388,0,0,0,.272-1.115v-4.925a.174.174,0,0,0-.02-.105s-.042-.042-.223-.042l-1.761.013a1.073,1.073,0,0,0-.557.16.285.285,0,0,0-.172.274v4.615a1.044,1.044,0,0,1-.3.7,1.183,1.183,0,0,1-.869.374,1.109,1.109,0,0,1-.841-.283.969.969,0,0,1-.334-.72V130.036a.951.951,0,0,1,.359-.728,1.127,1.127,0,0,1,.815-.276,1.27,1.27,0,0,1,.829.335.989.989,0,0,1,.358.739v4.627a.284.284,0,0,0,.172.274,1.072,1.072,0,0,0,.557.16l1.763.013c.133.006.187-.023.2-.04a.2.2,0,0,0,.025-.123v-4.923a2.421,2.421,0,0,0-.26-1.1A3.028,3.028,0,0,0,635.443,128.034Z" transform="translate(-628.653 -126.929)" fill="#742c2b"/>
        </g>
        <g id="Group_106" data-name="Group 106" transform="translate(10.662 0.833)">
          <g id="Group_105" data-name="Group 105">
            <path id="Path_114" data-name="Path 114" d="M647.987,128.4a.428.428,0,0,0-.074-.23.616.616,0,0,0-.328-.065c-1.313-.047-1.97-.074-3.282-.131a.665.665,0,0,0-.34.038.465.465,0,0,0-.047.2c-.644,5.969-1.285,11.952-1.906,17.787,0,.053,0,.094,0,.125.04,0,.1,0,.174,0,.676-.033,1.011-.047,1.687-.078a1.029,1.029,0,0,0,.628-.26.72.72,0,0,0,.291-.528l.129-2.17.332-.01,1.391-.038.352-.009.13,2.173a.533.533,0,0,0,.078.254.747.747,0,0,0,.2.218,1.142,1.142,0,0,0,.3.156.833.833,0,0,0,.323.047c.675-.026,1.013-.036,1.688-.06a.956.956,0,0,0,.2-.02.863.863,0,0,0,0-.127C649.258,139.861,648.612,134.05,647.987,128.4ZM645,141.362l.6-10.6h.726l.583,10.564Z" transform="translate(-642.004 -127.972)" fill="#742c2b"/>
          </g>
        </g>
        <g id="Group_108" data-name="Group 108" transform="translate(21.445 1.139)">
          <g id="Group_107" data-name="Group 107">
            <path id="Path_115" data-name="Path 115" d="M662.336,129.327a4.079,4.079,0,0,0-1.214-.628,5.5,5.5,0,0,0-1.636-.258c-1.483-.029-2.213-.046-3.725-.085a.889.889,0,0,0-.238.017.582.582,0,0,0-.016.157v17.094a.589.589,0,0,0,.016.158.941.941,0,0,0,.238.018c.657-.018.985-.027,1.643-.042a.98.98,0,0,0,.331-.067.932.932,0,0,0,.276-.164.832.832,0,0,0,.187-.232.44.44,0,0,0,.057-.222v-6.265l1.16,0h.007a1.254,1.254,0,0,1,.818.274.892.892,0,0,1,.367.7v5.267a.481.481,0,0,0,.053.225.672.672,0,0,0,.171.207.811.811,0,0,0,.264.15.824.824,0,0,0,.318.051c.663-.01.995-.014,1.659-.023a.9.9,0,0,0,.252-.03.722.722,0,0,0,.014-.16v-5.716a1.146,1.146,0,0,0-.285-.854,2.017,2.017,0,0,0-.931-.482l-1.035-.272.988-.414a2.3,2.3,0,0,0,.951-.676,1.518,1.518,0,0,0,.312-.984v-4.879a2.042,2.042,0,0,0-.254-.994A2.746,2.746,0,0,0,662.336,129.327Zm-1.73,6.694a1.011,1.011,0,0,1-.323.717,1.113,1.113,0,0,1-.806.327h-1.224v-6.891l1.165.018a1.274,1.274,0,0,1,.824.287.9.9,0,0,1,.363.7Z" transform="translate(-655.507 -128.355)" fill="#742c2b"/>
          </g>
        </g>
        <g id="Group_109" data-name="Group 109" transform="translate(32.041 1.309)">
          <path id="Path_116" data-name="Path 116" d="M676.516,128.568c-.67,0-1.005.007-1.675.009a1.011,1.011,0,0,0-.327.062,1.206,1.206,0,0,0-.312.164.848.848,0,0,0-.218.231.492.492,0,0,0-.081.232l-.8,13.783h-.724l-.814-13.786a.536.536,0,0,0-.082-.236.737.737,0,0,0-.2-.221,1.166,1.166,0,0,0-.312-.163.963.963,0,0,0-.327-.06c-.67,0-1,0-1.676-.01a1.9,1.9,0,0,0-.191.01,1.007,1.007,0,0,0,.007.1q.962,8.36,1.925,16.726c.016.16.054.2.054.2a.665.665,0,0,0,.3.051c.572,0,1.022,0,1.454,0,.581,0,1.129,0,1.9,0h.006a.545.545,0,0,0,.3-.05.371.371,0,0,0,.054-.19v-.006q.964-8.368,1.925-16.738a.537.537,0,0,0,.006-.1A1.489,1.489,0,0,0,676.516,128.568Z" transform="translate(-668.775 -128.568)" fill="#742c2b"/>
        </g>
        <g id="Group_110" data-name="Group 110" transform="translate(42.799 1.169)">
          <path id="Path_117" data-name="Path 117" d="M688.179,128.447a.428.428,0,0,0-.263-.054c-1.792.045-3.61.08-5.4.1a.785.785,0,0,0-.252.031.619.619,0,0,0-.017.16v16.808a.632.632,0,0,0,.015.149,1.024,1.024,0,0,0,.268.029c1.772.024,3.583.058,5.386.1a.446.446,0,0,0,.263-.054c.013-.01.038-.03.038-.12v-.445a1.18,1.18,0,0,0-.284-.862,1.135,1.135,0,0,0-.846-.3l-1.735-.027-.358-.006v-5.917l1.568,0h.007a1.065,1.065,0,0,0,.821-.284,1.183,1.183,0,0,0,.277-.844v-.445c0-.093-.027-.114-.042-.125a.394.394,0,0,0-.247-.062h0l-2.381.006V130.2l.358-.006c.693-.009,1.04-.014,1.735-.025a1.133,1.133,0,0,0,.844-.3,1.192,1.192,0,0,0,.285-.858v-.445C688.217,128.476,688.191,128.458,688.179,128.447Z" transform="translate(-682.246 -128.392)" fill="#742c2b"/>
        </g>
        <g id="Group_112" data-name="Group 112" transform="translate(52.187 0.928)">
          <g id="Group_111" data-name="Group 111">
            <path id="Path_118" data-name="Path 118" d="M700.824,128.853a3.647,3.647,0,0,0-1.2-.585A5.106,5.106,0,0,0,698,128.1c-1.489.057-2.22.081-3.721.131a.781.781,0,0,0-.252.034.555.555,0,0,0-.022.18v17.168a.548.548,0,0,0,.022.177.824.824,0,0,0,.252.037c.657.02.985.031,1.643.054a.854.854,0,0,0,.323-.047.786.786,0,0,0,.448-.367.445.445,0,0,0,.057-.227v-6.429l1.161.01a1.248,1.248,0,0,1,.83.3.935.935,0,0,1,.359.714v5.466a.557.557,0,0,0,.057.252.805.805,0,0,0,.178.238.987.987,0,0,0,.274.178.892.892,0,0,0,.314.073c.664.027,1,.042,1.658.073a.844.844,0,0,0,.228-.013.746.746,0,0,0,.016-.175v-6.061a1.326,1.326,0,0,0-.294-.931,1.986,1.986,0,0,0-.926-.516l-.978-.28.933-.4a2.308,2.308,0,0,0,.948-.71,1.717,1.717,0,0,0,.317-1.064v-5.174a2.286,2.286,0,0,0-.256-1.055A2.631,2.631,0,0,0,700.824,128.853Zm-1.727,7.076a1.044,1.044,0,0,1-.319.73,1.091,1.091,0,0,1-.81.341l-1.221,0V129.96l1.148-.031a1.214,1.214,0,0,1,.835.268.905.905,0,0,1,.367.71Z" transform="translate(-694.002 -128.09)" fill="#742c2b"/>
          </g>
        </g>
        <g id="Group_113" data-name="Group 113" transform="translate(63.597 0.021)">
          <path id="Path_119" data-name="Path 119" d="M715.037,127.693a3.579,3.579,0,0,0-1.238-.583,5.109,5.109,0,0,0-1.657-.141,5.26,5.26,0,0,0-1.612.339,4.327,4.327,0,0,0-1.222.717,3.013,3.013,0,0,0-.76.964,2.492,2.492,0,0,0-.258,1.118,9.426,9.426,0,0,0,.358,2.7,12.083,12.083,0,0,0,.917,2.237,21.4,21.4,0,0,0,1.2,1.986c.438.642.854,1.3,1.236,1.962a12.454,12.454,0,0,1,.971,2.1,7.314,7.314,0,0,1,.4,2.451.946.946,0,0,1-.36.726,1.158,1.158,0,0,1-.846.275,1.2,1.2,0,0,1-.8-.336,1,1,0,0,1-.346-.732v-2.524a.2.2,0,0,0-.038-.13.53.53,0,0,0-.162-.155.968.968,0,0,0-.261-.116,1.115,1.115,0,0,0-.289-.046l-1.762-.033a.331.331,0,0,0-.2.034.235.235,0,0,0-.026.135v2.845a2.487,2.487,0,0,0,.258,1.118,3,3,0,0,0,.76.964,4.24,4.24,0,0,0,1.236.719,5.565,5.565,0,0,0,1.659.343,5.063,5.063,0,0,0,1.657-.14,3.457,3.457,0,0,0,1.22-.579,2.561,2.561,0,0,0,1-2.066,12.074,12.074,0,0,0-.361-3.087,13.719,13.719,0,0,0-.91-2.472,16.375,16.375,0,0,0-1.195-2.053c-.446-.646-.862-1.285-1.235-1.9a12.253,12.253,0,0,1-.962-1.949,6.235,6.235,0,0,1-.4-2.264,1.041,1.041,0,0,1,.312-.688,1.151,1.151,0,0,1,.83-.38,1.167,1.167,0,0,1,.846.275.95.95,0,0,1,.36.728v2.812a.275.275,0,0,0,.164.268,1.053,1.053,0,0,0,.554.143l1.758-.036c.236,0,.236-.067.236-.191v-3.3a2.493,2.493,0,0,0-.272-1.149A2.644,2.644,0,0,0,715.037,127.693Z" transform="translate(-708.29 -126.956)" fill="#742c2b"/>
        </g>
      </g>
    </g>
    <path id="Path_120" data-name="Path 120" d="M708.193,133.055a5.6,5.6,0,0,0,3.775-2.152c2.761-3.64,3.223-9.87-.491-13.341l-.326-.3a.536.536,0,0,0-.757.025l-.609.652a.536.536,0,0,0,.026.757l.326.3c2.894,2.706,2.464,7.824.266,10.724a3.7,3.7,0,0,1-2.691,1.415,4.312,4.312,0,0,1-3.282-1.087,2.625,2.625,0,0,1-.717-1.176c-.036-.164-.068-.319-.1-.469l0-.007a3.208,3.208,0,0,1,.717-2.441,1.706,1.706,0,0,1,1.187-.635,1.271,1.271,0,0,1,.962.345,1.039,1.039,0,0,1,0,1.356.252.252,0,0,1-.171.1.147.147,0,0,1-.112-.044l-.323-.308a.535.535,0,0,0-.757.017l-.617.646a.535.535,0,0,0,.018.757l.323.308a2.1,2.1,0,0,0,1.586.583,2.219,2.219,0,0,0,1.571-.816,3,3,0,0,0-.174-4.031,3.219,3.219,0,0,0-2.428-.876,3.667,3.667,0,0,0-2.576,1.34c-.018.02-.034.042-.05.063a9.251,9.251,0,0,0-1.595-2.9c.134.012.267.018.4.018a5.222,5.222,0,0,0,4.928-4.331,6.125,6.125,0,0,0-1.164-4.954,5.205,5.205,0,0,0-3.922-2.081,9.571,9.571,0,0,0-6.365,2.288l0-.354a.535.535,0,0,0-.538-.532l-.892,0a.535.535,0,0,0-.533.538l0,.446a7.3,7.3,0,0,1-1.276,3.984,4.891,4.891,0,0,1-6.1,1.493,1.911,1.911,0,0,1-.94-1.287,2.407,2.407,0,0,1,.421-1.908,1.884,1.884,0,0,1,2.291-.647.421.421,0,0,1,.217.286.706.706,0,0,1-.14.553.378.378,0,0,1-.425.149l-.387-.221a.536.536,0,0,0-.731.2l-.442.775a.536.536,0,0,0,.2.731l.387.221a2.318,2.318,0,0,0,3-.716,2.668,2.668,0,0,0,.454-2.124,2.376,2.376,0,0,0-1.177-1.568,3.821,3.821,0,0,0-4.826,1.2,4.335,4.335,0,0,0-.757,3.488,3.912,3.912,0,0,0,.873,1.749h0c-7.952.538-15.961.839-23.905.9-2.545.007-5.119-.008-7.649-.038-6.7-.122-13.45-.411-20.155-.866a4.029,4.029,0,0,0,.914-1.874,4.3,4.3,0,0,0-.771-3.363,3.82,3.82,0,0,0-4.826-1.2,2.371,2.371,0,0,0-1.177,1.568,2.661,2.661,0,0,0,.454,2.123,2.318,2.318,0,0,0,3,.716l.387-.221a.536.536,0,0,0,.2-.731l-.442-.775a.535.535,0,0,0-.73-.2l-.388.221a.379.379,0,0,1-.425-.149.707.707,0,0,1-.139-.553.422.422,0,0,1,.217-.286,1.884,1.884,0,0,1,2.291.647,2.333,2.333,0,0,1,.426,1.822,2.094,2.094,0,0,1-.98,1.395c-2.034,1.241-4.839.181-6.085-1.545a6.748,6.748,0,0,1-1.254-3.953l0-.446a.535.535,0,0,0-.533-.538l-.892,0a.535.535,0,0,0-.538.533l0,.446v.037a10.314,10.314,0,0,0-6.39-2.431H614.3a4.774,4.774,0,0,0-3.672,1.726,6.739,6.739,0,0,0-1.436,5.272,5.191,5.191,0,0,0,4.943,4.373c.089,0,.18-.006.27-.012l0,0v0a9.3,9.3,0,0,0-1.531,2.739,3.649,3.649,0,0,0-2.491-1.242,3.216,3.216,0,0,0-2.429.876,3,3,0,0,0-.173,4.031,2.225,2.225,0,0,0,1.571.816,2.094,2.094,0,0,0,1.586-.583l.323-.308a.535.535,0,0,0,.017-.757l-.616-.646a.534.534,0,0,0-.756-.018l-.325.309a.149.149,0,0,1-.112.044.252.252,0,0,1-.171-.1,1.039,1.039,0,0,1,0-1.356,1.268,1.268,0,0,1,.962-.345,1.706,1.706,0,0,1,1.187.635,3.109,3.109,0,0,1,.7,1.656c-.123.582-.242,1.151-.4,1.914a2.939,2.939,0,0,1-.423.553,3.73,3.73,0,0,1-2.86,1.092,4.3,4.3,0,0,1-3.111-1.487c-2.3-2.764-2.662-7.922.294-10.687l.327-.305a.536.536,0,0,0,.025-.757l-.609-.651a.535.535,0,0,0-.757-.025l-.326.3a9.081,9.081,0,0,0-2.734,6.661,10.457,10.457,0,0,0,2.27,6.717,6.256,6.256,0,0,0,3.791,2.114,6.262,6.262,0,0,0-3.791,2.118,10.449,10.449,0,0,0-2.27,6.714,9.087,9.087,0,0,0,2.734,6.662l.326.3a.536.536,0,0,0,.757-.026l.609-.651a.536.536,0,0,0-.025-.757l-.327-.305c-2.957-2.764-2.594-7.922-.294-10.687a4.3,4.3,0,0,1,3.11-1.484,3.718,3.718,0,0,1,2.862,1.089,2.939,2.939,0,0,1,.423.553c.161.764.28,1.333.4,1.914a3.11,3.11,0,0,1-.7,1.656,1.7,1.7,0,0,1-1.187.635,1.253,1.253,0,0,1-.962-.345,1.039,1.039,0,0,1,0-1.356.252.252,0,0,1,.171-.1.149.149,0,0,1,.112.045l.325.309a.535.535,0,0,0,.756-.019l.616-.646a.535.535,0,0,0-.017-.757l-.323-.308a2.1,2.1,0,0,0-1.586-.583,2.228,2.228,0,0,0-1.571.816,3,3,0,0,0,.173,4.031,3.213,3.213,0,0,0,2.429.876,3.646,3.646,0,0,0,2.491-1.242,9.329,9.329,0,0,0,1.438,2.623h0a5.166,5.166,0,0,0-5.119,4.366,6.743,6.743,0,0,0,1.436,5.272,4.78,4.78,0,0,0,3.677,1.73h.028a10.308,10.308,0,0,0,6.392-2.428c0,.049,0,.1,0,.144l0,.446a.535.535,0,0,0,.538.533l.892,0a.535.535,0,0,0,.533-.538l0-.446a6.746,6.746,0,0,1,1.254-3.953c1.246-1.728,4.051-2.786,6.085-1.545a2.091,2.091,0,0,1,.98,1.394,2.333,2.333,0,0,1-.425,1.821,1.885,1.885,0,0,1-2.292.648.424.424,0,0,1-.217-.286.7.7,0,0,1,.139-.553.379.379,0,0,1,.425-.149l.388.221a.536.536,0,0,0,.73-.2l.442-.775a.536.536,0,0,0-.2-.731l-.387-.221a2.319,2.319,0,0,0-3,.717,2.663,2.663,0,0,0-.454,2.123,2.373,2.373,0,0,0,1.177,1.568,3.821,3.821,0,0,0,4.826-1.2,4.3,4.3,0,0,0,.77-3.363,4.018,4.018,0,0,0-.914-1.875h0c6.709-.453,13.456-.743,20.15-.866,2.535-.03,5.11-.044,7.647-.037,7.951.064,15.961.366,23.913.9h0a3.9,3.9,0,0,0-.874,1.75,4.335,4.335,0,0,0,.757,3.488,3.82,3.82,0,0,0,4.826,1.2,2.376,2.376,0,0,0,1.177-1.568,2.669,2.669,0,0,0-.454-2.124,2.318,2.318,0,0,0-3-.716l-.387.221a.535.535,0,0,0-.2.73l.443.775a.535.535,0,0,0,.73.2l.388-.221a.378.378,0,0,1,.425.149.706.706,0,0,1,.14.553.422.422,0,0,1-.217.286,1.884,1.884,0,0,1-2.291-.647,2.407,2.407,0,0,1-.421-1.908,1.911,1.911,0,0,1,.94-1.287,4.89,4.89,0,0,1,6.1,1.493,7.3,7.3,0,0,1,1.276,3.984l0,.446a.535.535,0,0,0,.533.538l.892,0a.535.535,0,0,0,.538-.532l0-.447V153.2a9.69,9.69,0,0,0,6.029,2.293q.168,0,.337-.007a5.212,5.212,0,0,0,3.922-2.085,6.129,6.129,0,0,0,1.163-4.954,5.173,5.173,0,0,0-5.232-4.315h0a9.31,9.31,0,0,0,1.5-2.782l.049.06a3.667,3.667,0,0,0,2.576,1.34,3.212,3.212,0,0,0,2.428-.876,3,3,0,0,0,.174-4.029,2.23,2.23,0,0,0-1.571-.817,2.107,2.107,0,0,0-1.586.583l-.323.308a.535.535,0,0,0-.018.757l.617.646a.535.535,0,0,0,.757.018l.323-.308a.149.149,0,0,1,.112-.045.252.252,0,0,1,.171.1,1.054,1.054,0,0,1,0,1.356,1.262,1.262,0,0,1-.963.345,1.7,1.7,0,0,1-1.187-.635,3.206,3.206,0,0,1-.717-2.441l0-.007c.032-.15.064-.305.1-.469a2.625,2.625,0,0,1,.717-1.176,4.31,4.31,0,0,1,3.282-1.085,3.684,3.684,0,0,1,2.691,1.415c2.2,2.9,2.63,8.015-.266,10.721l-.327.305a.536.536,0,0,0-.025.757l.609.651a.535.535,0,0,0,.756.026l.326-.3c3.714-3.472,3.251-9.7.491-13.343A5.584,5.584,0,0,0,708.193,133.055Zm-6.859-20.581a3.277,3.277,0,0,1,2.456,1.326,4.142,4.142,0,0,1,.791,3.348,3.273,3.273,0,0,1-3.234,2.758,1.226,1.226,0,0,1-.878-.484,1.486,1.486,0,0,1-.252-1.188,1.079,1.079,0,0,1,1.033-.886c.029,0,.035.009.041.017a.249.249,0,0,1,.023.186l-.08.439a.534.534,0,0,0,.431.622l.878.16a.536.536,0,0,0,.622-.431l.08-.439a2.194,2.194,0,0,0-.407-1.744,1.99,1.99,0,0,0-1.459-.769,3.022,3.022,0,0,0-3.092,2.483,3.571,3.571,0,0,0,.092,1.691l0,0a9.418,9.418,0,0,0-4.87-1.067C694.417,115.107,697.976,112.333,701.334,112.474Zm-90.2,4.7a4.765,4.765,0,0,1,.993-3.677,2.764,2.764,0,0,1,2.2-1.038,8.531,8.531,0,0,1,7.873,6.023,9.407,9.407,0,0,0-4.846.994l-.006,0a3.577,3.577,0,0,0,.072-1.618,3.032,3.032,0,0,0-3.093-2.484,1.99,1.99,0,0,0-1.458.768,2.194,2.194,0,0,0-.407,1.745l.079.44a.536.536,0,0,0,.622.431l.878-.16a.534.534,0,0,0,.431-.622l-.079-.439a.248.248,0,0,1,.023-.187c.006-.008.013-.016.041-.017a1.085,1.085,0,0,1,1.034.887,1.491,1.491,0,0,1-.253,1.19,1.224,1.224,0,0,1-.877.484A3.169,3.169,0,0,1,611.131,117.177Zm3.192,36.359h-.018a2.775,2.775,0,0,1-2.182-1.041,4.772,4.772,0,0,1-.992-3.679,3.168,3.168,0,0,1,3.225-2.717,1.228,1.228,0,0,1,.878.486,1.491,1.491,0,0,1,.253,1.19,1.085,1.085,0,0,1-1.032.885c-.03,0-.035-.01-.042-.018a.244.244,0,0,1-.024-.187l.079-.44a.535.535,0,0,0-.43-.622l-.878-.159a.536.536,0,0,0-.622.431l-.079.439a2.2,2.2,0,0,0,.406,1.745,1.994,1.994,0,0,0,1.458.769,3.022,3.022,0,0,0,3.093-2.483,3.587,3.587,0,0,0-.035-1.487h0a9.376,9.376,0,0,0,4.227.995c.184,0,.371-.006.557-.017A8.531,8.531,0,0,1,614.323,153.536Zm90.258-4.689a4.145,4.145,0,0,1-.791,3.348,3.278,3.278,0,0,1-2.457,1.328c-3.325.145-6.842-2.569-7.8-5.909a9.4,9.4,0,0,0,4.8-1.051l0,0a3.571,3.571,0,0,0-.057,1.565,3.019,3.019,0,0,0,3.093,2.482,2,2,0,0,0,1.458-.77,2.2,2.2,0,0,0,.406-1.744l-.08-.439a.534.534,0,0,0-.622-.431l-.878.159a.535.535,0,0,0-.431.622l.08.439a.251.251,0,0,1-.023.187c-.006.008-.013.016-.042.018a1.083,1.083,0,0,1-1.032-.884,1.487,1.487,0,0,1,.252-1.188,1.226,1.226,0,0,1,.878-.486A3.263,3.263,0,0,1,704.581,148.847Zm-3.424-9.024a7.287,7.287,0,0,1-7.969,5.8c-11.029-1-22.25-1.549-33.363-1.638-2.551-.006-5.137.007-7.688.039-9.9.178-19.9.723-29.738,1.618a7.284,7.284,0,0,1-7.962-5.812c-.115-.548-.212-1-.3-1.417a4.967,4.967,0,0,0-.542-2.549,4.811,4.811,0,0,0-1.786-2.664.18.18,0,0,1,0-.289,4.814,4.814,0,0,0,1.786-2.666,4.988,4.988,0,0,0,.542-2.549c.091-.423.188-.87.3-1.42a7.286,7.286,0,0,1,7.969-5.806c9.827.893,19.83,1.438,29.737,1.618,2.546.031,5.129.043,7.688.038,11.109-.089,22.332-.64,33.364-1.64a7.287,7.287,0,0,1,7.961,5.8c.234,1.09.381,1.784.569,2.671,0,.02.007.039.013.059.063.3.132.626.21,1a4.4,4.4,0,0,0,1.841,2.9.177.177,0,0,1,0,.284,4.4,4.4,0,0,0-1.841,2.9c-.078.37-.148.695-.21,1a.525.525,0,0,0-.013.055C701.539,138.033,701.391,138.729,701.158,139.823Z" transform="translate(0 0)" fill="#c4a381"/>
    <path id="Path_121" data-name="Path 121" d="M644.081,157.931l-1,.071.142,1.992,1-.071a324.415,324.415,0,0,1,45.832-.014l1,.07.141-1.992-1-.07A326.5,326.5,0,0,0,644.081,157.931Z" transform="translate(-9.34 -10.171)" fill="#742c2b"/>
    <path id="Path_122" data-name="Path 122" d="M690.446,119.844l-.141-1.992a324.653,324.653,0,0,1-45.832-.014l-.142,1.992c7.684.549,15.421.823,23.158.823C675.161,120.652,682.83,120.383,690.446,119.844Z" transform="translate(-9.592 -1.478)" fill="#742c2b"/>
  </g>
</svg>
